<?xml version="1.0" encoding="UTF-8" standalone="no"?>
<!DOCTYPE svg PUBLIC "-//W3C//DTD SVG 1.1//EN" "http://www.w3.org/Graphics/SVG/1.1/DTD/svg11.dtd">
<svg width="100%" height="100%" viewBox="0 0 800 200" version="1.1" xmlns="http://www.w3.org/2000/svg" xmlns:xlink="http://www.w3.org/1999/xlink" xml:space="preserve" xmlns:serif="http://www.serif.com/" style="fill-rule:evenodd;clip-rule:evenodd;stroke-linejoin:round;stroke-miterlimit:2;">
    <g transform="matrix(1.04867,0,0,1.04867,-25.2338,-186.352)">
        <path d="M333.653,274.566L333.674,274.504C334.33,272.585 335.244,270.782 336.413,269.098C339.082,265.12 342.054,263.132 345.328,263.132C345.938,263.132 346.571,263.201 347.224,263.342C359.488,242.56 366.533,230.716 368.357,227.816L372.221,221.775C379.427,211.15 386.263,204.784 392.721,202.678C394.922,201.976 397.169,201.625 399.462,201.625C401.757,201.625 403.64,202.422 405.113,204.013C406.589,205.604 407.324,208.132 407.324,211.596C407.324,221.472 401.801,232.824 390.756,245.649L372.502,265.868C369.272,269.378 366.182,272.985 363.231,276.682C364.778,278.46 366.205,279.994 367.514,281.28C368.826,282.569 369.915,283.212 370.781,283.212C371.647,283.212 372.923,282.918 374.608,282.333C376.291,281.747 378.223,280.965 380.401,279.982C382.576,278.998 384.902,277.865 387.385,276.577C389.867,275.288 392.275,273.966 394.617,272.608C398.86,270.141 402.119,268.038 404.391,266.299C409.188,261.214 416.156,256.576 425.301,252.387C435.457,247.66 445.146,244.594 454.366,243.192C458.345,242.583 461.176,242.278 462.864,242.278C464.55,242.278 465.967,242.454 467.112,242.803C468.257,243.156 469.254,243.635 470.094,244.245C471.964,245.6 472.907,247.45 472.907,249.792C472.907,252.131 472.295,254.342 471.08,256.427C469.858,258.507 468.318,260.252 466.446,261.656C462.792,264.372 458.719,265.727 454.228,265.727C448.097,265.727 443.037,264.933 439.061,263.342C436.297,264.326 433.96,266.127 432.039,268.748C430.448,270.899 429.654,272.831 429.654,274.54C429.654,276.249 430.038,277.909 430.814,279.523C431.586,281.139 432.669,282.579 434.076,283.842C437.163,286.558 440.888,287.916 445.241,287.916C455.352,287.916 467.122,282.556 480.557,271.835L486.946,266.852C487.938,266.094 488.887,265.392 489.795,264.747C491.057,262.623 492.495,260.516 494.107,258.426C496.448,255.431 499.069,252.81 501.972,250.563C508.244,246.63 514.892,244.665 521.911,244.665C525.001,244.665 527.202,245.626 528.513,247.545C529.028,248.293 529.282,249.264 529.282,250.458C529.282,251.649 528.944,253.03 528.267,254.6C527.586,256.168 526.756,257.808 525.775,259.514C524.791,261.223 523.705,262.988 522.508,264.815C521.317,266.642 520.226,268.42 519.244,270.151C516.903,274.268 515.732,277.233 515.732,279.034C515.732,280.835 516.25,282.159 517.279,283.002C518.309,283.842 519.57,284.265 521.071,284.265C524.394,284.265 527.227,283.455 529.564,281.841C531.906,280.228 534.221,278.365 536.519,276.259L543.119,269.8L549.503,263.201C554.046,258.566 557.499,255.677 559.861,254.529C562.223,253.384 563.945,252.948 565.021,253.232C566.102,253.512 567.196,254.014 568.323,254.739C569.443,255.466 570.544,256.343 571.62,257.373C574.152,259.806 575.553,262.007 575.832,263.972C575.927,265.235 575.822,267.121 575.517,269.624C575.212,272.132 575.064,273.848 575.064,274.786C575.064,279.513 577.144,281.877 581.312,281.877C585.475,281.877 592.685,277.876 602.937,269.872L608.68,265.17C611.11,258.208 613.734,252.191 616.554,247.122C617.4,245.531 617.82,244.501 617.82,244.033L608.763,244.033C605.346,244.033 602.699,243.236 600.826,241.645C598.956,240.054 598.019,238.253 598.019,236.239C598.019,234.228 598.395,232.752 599.141,231.815C599.891,230.88 600.826,230.201 601.954,229.778C603.545,229.125 605.881,228.797 608.973,228.797L626.177,228.868C626.546,228.728 627.296,227.721 628.423,225.848L632.707,218.475C634.526,215.201 636.363,212.787 638.215,211.245C640.062,209.698 642.237,208.929 644.746,208.929C647.246,208.929 649.354,209.16 651.066,209.629C652.772,210.1 654.212,210.681 655.383,211.386C657.676,212.885 658.821,214.522 658.821,216.3C658.821,217.05 658.565,218.055 658.05,219.318L654.117,228.868L687.468,228.797C690.368,228.797 691.821,230.295 691.821,233.29C691.821,240.407 685.48,243.961 672.796,243.961L647.097,244.033C646.536,244.314 645.576,245.67 644.22,248.106L641.056,253.932C640.262,255.382 639.701,256.484 639.376,257.232L637.831,260.672C634.693,267.743 633.127,272.844 633.127,275.977C633.127,279.116 633.957,281.736 635.617,283.842C637.28,285.948 639.491,287.001 642.253,287.001C645.014,287.001 647.717,286.463 650.364,285.387C653.005,284.311 655.593,283.002 658.119,281.455C662.707,278.601 666.312,275.957 668.933,273.52C671.556,271.086 673.731,269.239 675.463,267.974L680.377,264.536C681.367,263.874 682.275,263.343 683.101,262.941L683.295,262.814C684.484,262.043 685.506,261.351 686.346,260.741L693.786,255.689C693.786,250.914 696.548,246.536 702.074,242.56C707.318,238.814 712.511,236.941 717.661,236.941C720.937,236.941 723.348,238.532 724.89,241.714C725.362,242.654 725.595,243.881 725.595,245.403C725.595,246.925 724.821,248.644 723.279,250.563C724.496,251.826 726.051,253.289 727.947,254.949C729.845,256.614 731.679,258.426 733.457,260.39C737.764,265.212 739.916,269.823 739.916,274.225C739.916,277.128 737.925,280.66 733.947,284.826C732.732,286.135 731.395,287.352 729.95,288.474C734.813,286.604 740.667,282.884 747.502,277.312L755.713,270.572C760.488,266.593 763.685,264.3 765.299,263.693C766.911,263.083 768.379,262.778 769.688,262.778C770.995,262.778 772.27,263.106 773.51,263.762C774.753,264.418 775.373,265.484 775.373,266.957C775.373,268.43 775.137,269.859 774.674,271.24C774.202,272.621 773.641,273.897 772.985,275.065C772.05,276.751 770.695,278.483 768.914,280.261C764.001,284.895 759.235,289.143 754.627,293.006C750.015,296.867 745.255,300.18 740.336,302.942C729.95,308.747 718.429,311.644 705.796,311.644C698.725,311.644 692.597,309.843 687.397,306.241C685.244,304.743 683.595,303.187 682.449,301.571C681.302,299.957 680.728,298.694 680.728,297.779C680.728,296.867 681.033,295.909 681.642,294.9C682.247,293.895 683.069,292.853 684.099,291.774C685.129,290.701 686.31,289.625 687.647,288.549C688.977,287.47 690.35,286.512 691.749,285.669C695.029,283.75 697.475,282.789 699.092,282.789C700.703,282.789 701.933,282.989 702.773,283.386C703.619,283.783 704.39,284.216 705.089,284.685C707.011,285.997 708.368,286.65 709.163,286.65C711.084,286.65 712.045,285.341 712.045,282.718C712.045,280.286 710.754,277.361 708.181,273.943C707.152,272.539 706.075,271.158 704.951,269.8C703.829,268.443 702.893,267.11 702.143,265.799C700.647,267.53 698.776,269.309 696.53,271.135L689.715,276.892C688.179,278.216 686.68,279.315 685.217,280.189L683.323,282.159C679.16,286.417 674.302,290.606 668.758,294.725C663.209,298.845 658.331,302.099 654.117,304.484C644.336,309.915 635.464,312.628 627.506,312.628C620.015,312.628 613.913,310.381 609.183,305.888C605.11,302.006 603.073,297.91 603.073,293.601C603.073,292.528 603.099,291.456 603.152,290.386C601.078,292.006 598.855,293.652 596.479,295.322C593.246,297.592 589.995,299.665 586.715,301.535C579.322,305.844 573.237,307.996 568.462,307.996C562.754,307.996 558.281,305.983 555.052,301.958C552.011,298.212 550.3,293.204 549.929,286.932C541.502,295.594 532.584,302.263 523.18,306.941C517.42,309.8 512.55,311.224 508.571,311.224C504.595,311.224 501.106,310.745 498.109,309.787C495.114,308.826 492.495,307.386 490.249,305.468C485.907,301.834 483.499,296.937 483.03,290.769C481.92,291.642 480.816,292.47 479.716,293.252C468.762,301.394 456.613,306.966 443.273,309.961C438.218,311.129 433.43,311.716 428.919,311.716C424.399,311.716 420.656,311.329 417.684,310.558C414.708,309.787 412.041,308.754 409.678,307.468C407.314,306.182 405.267,304.694 403.535,303.011C401.803,301.325 400.353,299.547 399.182,297.674C398.193,296.097 397.416,294.574 396.854,293.102C393.699,295.304 390.414,297.309 387,299.114C382.53,301.479 377.987,303.397 373.379,304.871C368.77,306.346 364.45,307.082 360.425,307.082C356.398,307.082 351.858,305.257 346.804,301.604C346.056,305.678 345.364,309.738 344.734,313.786C344.101,317.834 343.34,321.71 342.451,325.407C341.562,329.106 340.45,332.547 339.115,335.729C337.781,338.911 336.039,341.65 333.884,343.945C329.16,348.951 322.581,351.454 314.154,351.454C312.845,351.454 311.769,350.965 310.924,349.981C309.428,348.203 308.818,346.179 309.102,343.909C309.382,341.637 310.271,338.399 311.769,334.184C313.268,329.972 315.164,325.325 317.454,320.247C319.75,315.167 322.324,309.774 325.179,304.064L328.994,296.786C328.294,297.2 327.584,297.613 326.864,298.025C322.371,300.6 317.598,302.916 312.541,304.976C301.353,309.564 290.518,311.857 280.035,311.857C272.031,311.857 265.03,309.774 259.042,305.609C254.219,302.262 251.25,298.361 250.135,293.909C247.97,295.287 245.696,296.66 243.312,298.025C238.819,300.6 234.046,302.916 228.988,304.976C217.8,309.564 206.964,311.857 196.483,311.857C188.477,311.857 181.477,309.774 175.488,305.609C169.216,301.256 166.078,295.965 166.078,289.743C166.078,279.958 171.345,270.666 181.877,261.866C190.957,254.285 201.653,248.411 213.965,244.245C221.454,241.714 227.794,240.451 232.993,240.451C237.205,240.451 240.76,241.483 243.663,243.541C246.753,245.787 248.298,248.808 248.298,252.597C248.298,258.543 243.591,265.12 234.184,272.329C232.685,273.5 231.327,274.481 230.113,275.278L227.584,276.961C222.904,280.24 215.789,283.912 206.241,287.985C209.19,289.53 211.939,290.301 214.49,290.301C217.042,290.301 219.333,289.999 221.369,289.389C223.406,288.782 225.712,287.916 228.289,286.791C230.861,285.669 233.613,284.321 236.536,282.754C239.462,281.188 242.42,279.467 245.418,277.594C250.409,274.487 254.906,271.328 258.91,268.116C260.796,266.006 262.97,263.923 265.432,261.866C274.511,254.285 285.205,248.411 297.517,244.245C305.006,241.714 311.349,240.451 316.545,240.451C320.757,240.451 324.313,241.483 327.215,243.541C330.305,245.787 331.85,248.808 331.85,252.597C331.85,258.543 327.146,265.12 317.739,272.329C316.24,273.5 314.88,274.481 313.665,275.278L311.137,276.961C306.456,280.24 299.341,283.912 289.793,287.985C292.742,289.53 295.491,290.301 298.043,290.301C300.594,290.301 302.887,289.999 304.924,289.389C306.961,288.782 309.264,287.916 311.841,286.791C314.413,285.669 317.165,284.321 320.09,282.754C323.014,281.188 325.973,279.467 328.97,277.594C330.583,276.59 332.144,275.581 333.653,274.566ZM48.898,302.063C48.006,299.934 47.566,298.084 47.566,296.516C47.566,294.948 47.986,293.086 48.829,290.934C49.671,288.782 50.817,286.289 52.269,283.455C53.719,280.625 55.403,277.535 57.324,274.189C59.24,270.843 61.3,267.459 63.501,264.041L70.1,253.863C72.396,250.54 74.643,247.45 76.841,244.594C67.479,247.588 60.542,250.504 56.023,253.337C51.508,256.168 48.032,258.241 45.598,259.548C43.164,260.859 41.15,261.515 39.56,261.515C36.936,261.515 35.627,259.876 35.627,256.601C35.627,251.921 38.063,246.164 42.931,239.329C47.986,232.261 53.217,227.885 58.623,226.199C64.029,224.516 70.067,222.912 76.736,221.39C83.407,219.868 90.347,218.544 97.554,217.422C113.187,214.991 127.721,213.771 141.155,213.771C156.506,213.771 166.313,215.224 170.574,218.124C174.366,220.699 176.94,224.257 178.298,228.797C178.954,230.998 179.282,233.362 179.282,235.888C179.282,238.414 178.052,241.05 175.593,243.787C173.136,246.525 169.872,249.113 165.798,251.544C158.123,256.227 148.06,260.439 135.609,264.185C142.677,265.54 147.581,267.098 150.319,268.853C153.055,270.607 154.987,272.362 156.112,274.12C157.234,275.872 157.795,278.098 157.795,280.789C157.795,283.481 156.624,286.253 154.285,289.107C151.944,291.964 148.703,294.633 144.56,297.111C140.42,299.593 135.527,301.84 129.885,303.851C124.244,305.865 118.126,307.573 111.524,308.977C97.764,311.972 83.443,313.471 68.558,313.471C62.097,313.471 56.878,311.575 52.902,307.786C51.119,306.098 49.787,304.192 48.898,302.063ZM92.007,255.054C84.988,267.226 81.475,275.654 81.475,280.332C81.475,282.487 82.597,284.501 84.844,286.371C86.953,288.149 89.151,289.038 91.446,289.038C93.739,289.038 96.265,288.933 99.03,288.723C101.791,288.513 104.622,288.221 107.525,287.844C110.428,287.47 113.282,287.027 116.092,286.512C118.897,285.997 121.403,285.41 123.601,284.754C128.471,283.304 130.905,281.831 130.905,280.332C130.905,277.617 127.136,275.37 119.602,273.592C113.469,272.188 107.617,271.486 102.048,271.486C99.893,271.486 98.351,271.053 97.416,270.187C96.475,269.321 96.009,268.315 96.009,267.167C96.009,266.022 96.58,264.828 97.731,263.588C98.876,262.348 100.431,261.331 102.398,260.531C118.313,256.553 131.607,252.082 142.277,247.122C147.519,244.691 150.143,242.839 150.143,241.576C150.143,239.749 149.605,238.276 148.529,237.151C146.61,235.14 144.478,234.131 142.139,234.131C139.797,234.131 137.131,234.228 134.136,234.415C131.138,234.602 127.908,234.881 124.444,235.255C116.814,236.006 109.257,237.082 101.768,238.486C100.69,240.687 99.263,243.167 97.485,245.928L92.007,255.054ZM282.21,278.224L286.071,276.259C287.334,275.606 288.458,274.996 289.442,274.435C298.896,269.006 304.281,265.658 305.59,264.395C306.899,263.132 307.558,262.253 307.558,261.761C307.558,261.269 307.417,260.698 307.135,260.042C306.856,259.386 306.479,258.8 306.013,258.285C304.888,256.975 303.694,256.32 302.431,256.32C301.168,256.32 299.774,256.553 298.253,257.022C296.731,257.49 295.199,258.136 293.654,258.953C292.112,259.77 290.626,260.754 289.196,261.899C287.767,263.05 286.516,264.277 285.44,265.589C282.958,268.535 281.718,271.086 281.718,273.241C281.718,275.393 281.885,277.056 282.21,278.224ZM198.658,278.224L202.519,276.259C203.782,275.606 204.906,274.996 205.888,274.435C215.344,269.006 220.726,265.658 222.038,264.395C223.347,263.132 224.005,262.253 224.005,261.761C224.005,261.269 223.865,260.698 223.583,260.042C223.301,259.386 222.927,258.8 222.458,258.285C221.336,256.975 220.142,256.32 218.879,256.32C217.616,256.32 216.222,256.553 214.701,257.022C213.179,257.49 211.647,258.136 210.099,258.953C208.557,259.77 207.071,260.754 205.644,261.899C204.215,263.05 202.962,264.277 201.888,265.589C199.406,268.535 198.163,271.086 198.163,273.241C198.163,275.393 198.33,277.056 198.658,278.224Z" style="fill:rgb(255,239,237);fill-rule:nonzero;"/>
    </g>
</svg>
