<svg viewBox="0 0 1934 1934" xmlns="http://www.w3.org/2000/svg" fill-rule="evenodd" clip-rule="evenodd" stroke-linejoin="round" stroke-miterlimit="2"><path fill="none" d="M-.0026.0001h1933.5991v1933.5996H-.0025z"/><path d="M442.5419 1435.0962H1489.191v-8H442.542v8zm597.2878-228.3503c1.29-.54 1.48-.62-2.34.98-.52.21-1.01.42-1.37.57-2.13.89-4.26 1.79-6.39 2.68-8.24 3.47-16.4901 6.94-24.7201 10.42-32.1601 13.58-64.2802 27.26-96.4003 40.94-59.9802 25.54-119.9424 51.1501-180.3806 75.6001-48.0061 19.42-96.3322 38.07-145.7904 53.4901-8.958 2.79-17.963 5.41-27.027 7.82h941.5297v14H475.146c-.284.03-.56.06-.828.08-5.342.42-21.842.2-27.2121.21h-1c-2.988 0-7.198-2.72-8.28-6.75-1.14-4.26 3.93-9.67 7.394-9.76 31.564-.83 103.8623-18.02 108.0643-19.17 4.518-1.22 9.018-2.51 13.506-3.85 2.544-.75 5.081-1.52 7.617-2.31 10.1401-3.24 20.2231-6.67 30.2672-10.21 51.0921-17.99 101.2883-38.52 151.2904-59.3201 3.66-1.52 7.318-3.05 10.976-4.57l5.5-2.3c6.9481-2.92 13.8951-5.84 20.8381-8.77 15.072-6.36 30.1341-12.75 45.1882-19.15 31.572-13.41 63.1122-26.88 94.6923-40.28 68.4102-29.0401 136.9304-57.8302 205.9406-85.4202 66.6902-26.67 133.8404-52.27 201.8406-75.45 64.3602-21.9401 129.5104-42.1601 195.8006-57.4402 59.5101-13.71 119.9103-24.25 181.1005-25.16 30.64-.46 64.0002.76 92.1503 14.22 14.95 7.15 26.61 20.79 26.01 38.01-.66 18.7701-9.96 35.9301-20.35 51.0801-13 18.94-28.41 36.2-44.6101 52.4401-13.65 13.68-27.9701 26.68-42.6702 39.23-4.7 4.02-9.44 7.98-14.2 11.92-1.33 1.1-2.63 2.25-3.99 3.31-4.06 3.17 2.23-1.62 1.32-4.83l-.25-.17c-.43-1.52-2.06-2.86-5.48-3.84h-.01l5.49 3.84c1.32 4.67-8.73 11-13.16 13.26-7.3 3.74-16.2401 6.23-24.2801 7.62-6.02 1.03-14.21 2.12-20.31.39-10.3901-2.96-4.0001-9.5.7-13.41 26.9-22.38 53.28-45.47 76.7001-71.55 3.6-4 7.12-8.08 10.53-12.23 1.78-2.16 3.49-4.38 5.25-6.56-3.43 4.25 1.71-2.32 2.6701-3.64 5.82-8.03 11.22-16.44 15.53-25.39 1.91-3.96 3.61-8.04 4.94-12.23.64-2 1.19-4.03 1.64-6.08.19-.88.33-1.7701.52-2.6501.02-.12.04-.22.06-.32 0-.07.01-.15.01-.24.26-7.35-.15-14.19-3.74-20.82-.44-.81-.94-1.58-1.42-2.38-.12-.19-.22-.36-.31-.51-1.24-1.35-2.41-2.72-3.78-3.96-3.17-2.88-6.78-5.24-10.56-7.23-1.26-.66-2.56-1.25-3.84-1.87-.16-.07-.3-.14-.43-.2-.1-.03-.21-.07-.34-.11-2.67-.88-5.3-1.85-8.01-2.62-6.29-1.79-12.68-2.97-19.13-4-.85-.09-1.7101-.2-2.5601-.29-1.87-.2-3.74-.38-5.61-.55-4.52-.38-9.05-.65-13.59-.83-5-.2-10-.28-15.0001-.28-1.05 0-2.11 0-3.17.01-12.08.53-24.13.99-36.1901 2.08-6.5.59-13 1.29-19.48 2.07-.14.02-.28.03-.41.05-1.03.14-2.06.27-3.09.41-3.2801.45-6.5601.92-9.8301 1.41-13.98 2.09-27.9101 4.55-41.7801 7.28-7.23 1.43-14.44 2.93-21.6401 4.5l-.38.08c-1.2.27-2.41.54-3.62.82-3.6.82-7.2 1.66-10.8 2.52-15.2301 3.62-30.3901 7.51-45.4902 11.61-15.71 4.26-31.37 8.76-46.9601 13.44-7.77 2.33-15.53 4.71-23.2701 7.12-1.29.41-2.62.91-3.93 1.25-.51.16-1.01.32-1.51.48-3.94 1.25-7.88 2.52-11.81 3.8-33.2701 10.81-66.3202 22.3-99.1903 34.25-67.9802 24.71-135.2504 51.3701-202.1506 78.8502-16.7901 6.9-33.5501 13.84-50.3002 20.83-2.6 1.09-5.19 2.18-7.79 3.26l-1.11.47zm1.28 33.5v133.5402h32v-147.1102c-10.67 4.53-21.34 9.04-32 13.57zm246.0807-101.5001v235.0403h32.0001v-247.4503c-10.68 4.1-21.35 8.23-32 12.41zm-149.4304 60.69c-2.86 1.2-5.72 2.39-8.57 3.59.78-.33.76-.32-1.26.52l-2.79 1.17c-.67.28-1.33.56-2 .84v168.2303h32v-181.5502c-5.79 2.41-11.6 4.79-17.38 7.2zm-423.9403 174.3503h31.184v-11.23c-10.356 3.85-20.754 7.59-31.184 11.23zm163.2395-64.05v64.05h32v-77.4301c-10.66 4.49-21.33 8.93-32 13.38zm328.101-138.1303v202.1803h32v-215.1603c-10.67 4.3-21.34 8.63-32 12.98zm246.0807-93.36v295.5403h32.0001v-306.2504c-10.69 3.5-21.35 7.08-32.0001 10.71zM817.253 1334.356c-7.398 2.99-14.808 5.95-22.222 8.9v30.53h32v-43.44c-3.264 1.33-6.514 2.69-9.778 4.01zm141.8264-59.19v98.62h32.0001v-112.24c-10.66 4.54-21.33 9.08-32 13.62zm431.1213-175.4102c-7 2.54-13.99 5.12-20.98 7.71v266.3203h32v-277.9903c-3.67 1.32-7.35 2.62-11.02 3.96zM574.4073 1371.696l-2.505.8c-4.072 1.31 6.934-2.16 5.87-1.84-1.106.33-2.202.69-3.304 1.03l-.061.01zm198.0336-76.4001l-1.114.46c-5.633 2.37 6.911-2.89 1.114-.46zm641.2499-230.4903c1.34-.43 2.68-.85 4.03-1.28 4.78-1.52-4.41 1.37-4.24 1.33.07-.02.14-.03.21-.05zm358.351-8.76c-.03 1.87.54-2.4 0 0zm-5.34-23.82c-.05-.05-.09-.1-.13-.15l.01.02.12.13zm-218.9406-4.18c.35-.08.69-.16 1.03-.24.34-.07.68-.15 1.02-.23 4.64-1.04-9.41 2.07-2.05.47zm200.2106-9.21c2.66.84-2.81-1.37 0 0zm-123.4904-4.47c.49-.07.99-.13 1.49-.2 3.61-.49-8.76 1.09-3.91.5.81-.1 1.61-.2 2.42-.3zm96.0103-2.26l.14.02c4.78.52-4.96-.78-.33-.05l.19.03zm-39.9301-1.94l.93-.04c.31-.02-7.61.09-3.82.07l2.03-.03h.86z" fill="#fff" fill-rule="nonzero"/><path d="M106.5089 1051.6757c27.342 0 54.6821-1.05 82.0242-3.04 59.4002-4.67 85.3303 20.89 85.3443 70.65.006 32.8001-15.068 61.0302-38.1641 84.2002 24.99 26.57 38.196 57.83 38.202 85.8.014 46.7401-23.546 87.5002-82.9482 92.3202-28.126 2.11-56.2541 3.21-84.3802 3.22l-.078-333.1504zm181.0555 152.3202c-.032-131.9202 37.6701-176.6102 96.5983-189.4302 58.4522-12.89 95.7063 15.84 95.7323 147.7701.032 131.1502-37.1941 182.2702-95.6543 195.1603-58.4542 12.74-96.6463-22.81-96.6763-153.5002zm-98.9653 126.3401c24.5101-1.86 31.5781-21.39 31.5741-38.49.002-17.16-10.38-36.13-28.298-57.29-9.892 5.65-20.2641 10.72-31.1082 14.68.006 27.6.014 55.2.02 82.8 9.27-.45 18.5421-1.02 27.8121-1.7zm319.071-342.4204c17.756-5.14 35.514-10.52 53.2701-16.12 22.3281 58.28 44.6562 116.2201 66.9842 173.8702l-.046-195.9502c18.0721-6.21 36.1422-12.61 54.2142-19.16.024 111.04.05 222.0802.076 333.1204-17.6 6.39-35.1981 12.62-52.7982 18.68-22.486-54.98-44.97-110.2402-67.4542-165.8502.014 62.7.03 125.4101.044 188.1202-18.07 5.7-36.14 11.19-54.2101 16.42-.026-111.0401-.054-222.0802-.08-333.1304zm-81.9853 188.5102c-.022-92.6-18.88-115.36-41.51-110.42-23.0962 5.06-42.4182 35.62-42.4002 128.71.018 91.6002 19.35 116.4102 42.4541 111.3402 22.628-4.93 41.4761-37.54 41.4561-129.6302zm330.423-222.1102c-17.756 6.82-35.512 13.53-53.2681 20.08l-.012-51.43c53.4261-19.74 106.8523-40.7801 160.2814-62.4201 0 17.15 0 34.3.01 51.44-17.6 7.13-35.201 14.19-52.8011 21.16.022 93.9002.044 187.7903.064 281.6904-18.07 7.16-36.1401 14.22-54.2102 21.17-.022-93.9-.044-187.7902-.064-281.6903zm-535.9686 173.9002c-.006-16.71-7.552-29.97-31.594-28.14-9.2721.67-18.5421 1.24-27.8142 1.69l.024 93.58c37.2402-14.64 59.3942-34.39 59.3842-67.13zm663.7-276.0903c46.8301-19.09 93.6603-38.55 140.4804-57.9101 0 17.15.01 34.29.01 51.44-28.75 11.89-57.5101 23.81-86.2602 35.67 0 28.9001.01 57.8102.01 86.7102 22.48-9.27 44.9501-18.57 67.4202-27.87 0 17.14.01 34.29.01 51.43-22.47 9.3-44.9402 18.61-67.4102 27.88 0 30.7001.01 61.4001.02 92.1002 28.75-11.86 57.5101-23.79 86.2702-35.68 0 17.15.01 34.29.01 51.44-46.8301 19.36-93.6503 38.82-140.4804 57.91-.03-111.04-.05-222.0802-.08-333.1203zm165.9305-68.4201c17.76-7.32 35.5101-14.61 53.2702-21.85 22.33 56.22 44.6601 112.53 66.9802 168.9702-.01-65.3101-.03-130.6302-.04-195.9503 18.07-7.19 36.14-14.28 54.2101-21.26.03 111.0401.05 222.0803.08 333.1304-17.6 6.79-35.2 13.7-52.8001 20.69-22.4801-53.78-44.9702-107.4101-67.4502-160.9602.01 62.7101.02 125.4102.04 188.1202-18.07 7.36-36.1401 14.78-54.2102 22.23-.03-111.04-.06-222.0802-.08-333.1203zm279.5808 57.43c-.04-131.6701 37.6602-185.2302 96.5903-203.9402 58.4602-18.44 95.7103 11.78 95.7403 143.4702.03 131.3801-37.2001 181.0202-95.6603 199.4602-58.4501 18.54-96.6403-8.08-96.6703-138.9902zm207.4307 27.66v-25.96c17.6-4.56 35.2-8.85 52.7901-12.86 0 5.39.01 10.78.01 16.17 0 26.94 14.15 34.49 27.8201 31.64 16.04-3.37 31.11-16.49 31.11-44.9-.02-24.88-15.1-30.32-56.12-57.44-28.2902-19.14-57.0502-36.11-57.0602-83.6301-.02-58.2101 34.87-97.6071 83.4202-107.7792 49.9602-10.342 78.2502 11.339 82.0403 65.0391.48 8.26.95 17.49.95 27.29-17.7601 2.68-35.5102 5.7-53.2702 9.06 0-8.82-.47-15.59-.48-22.94-2.36-22.08-11.31-30.73-28.76-27.11-15.0801 3.13-29.7002 16.28-29.6902 45.18.02 22.57 16.98 35.7001 43.3801 51.9801 33.0101 19.74 69.7903 44.56 69.8003 93.1201.02 57.8801-35.3401 93.0901-85.3103 103.5702-43.8401 9.16-80.6202-9.44-80.6302-60.4301zm-69.3102-72.84c-.02-92.5801-18.8901-114.4801-41.5102-107.3201-23.1 7.29-42.4201 40.75-42.4001 133.8201.02 91.6101 19.35 113.5202 42.4501 106.2302 22.6201-7.16 41.4802-40.6201 41.4602-132.7302zm247.9707 36.67v-25.97c17.59-2.47 35.1901-4.59 52.7902-6.32 0 5.39 0 10.78.01 16.16 0 26.95 14.15 36.31 27.82 35.3 16.02-1.24 31.1101-12.24 31.1001-40.65-.01-24.85-15.09-32.52-56.1101-64.98-28.2901-22.81-57.0602-43.1801-57.0602-90.6902-.01-58.2 34.85-93.587 83.4102-97.251 49.9702-3.6121 78.2603 22.44 82.0503 76.681.47 8.32.95 17.63.95 27.43-17.76.02-35.5101.47-53.2702 1.34 0-8.81-.48-15.65-.48-23-2.37-22.4-11.32-32.32-28.76-31.05-15.0901 1.11-29.7001 12.37-29.6901 41.28.01 22.58 16.98 37.85 43.38 57.74 33.0002 24.2201 69.7903 54.5502 69.7903 103.1202.02 57.91-35.3301 87.6901-85.3003 91.4701-43.8401 3.28-80.6102-19.61-80.6302-70.61z" fill="#fff" fill-rule="nonzero"/><path d="M129.937 1418.4461c160.7184 297.1804 475.1934 499.0806 836.8225 499.0806 525.0915 0 950.7628-425.6705 950.7628-950.7611 0-86.5901-11.57-170.4802-33.2401-250.1303-.03-6.2.33-12.19 1.2-17.87 1.14-7.37 2.5-14.51 3.98-21.4 28.6301 91.39 44.0601 188.5902 44.0601 289.4003 0 533.9206-432.8312 966.7612-966.7628 966.7612-370.7582 0-692.7711-208.7103-854.9736-515.0807h18.151zm-48.9522-63.74C28.8987 1235.9459-.0024 1104.7258-.0024 966.7656-.0024 432.835 432.8329.0004 966.7595.0004c380.741 0 710.082 220.1013 867.6926 539.9647-7.01-1.81-13.78-3.386-20.2801-4.754-157.2605-308.1814-477.6914-519.2106-847.4125-519.2106-525.0896 0-950.7619 425.6715-950.7619 950.7651 0 122.1301 23.03 238.8903 64.9872 346.1704v41.77z" fill="#fff"/><path d="M977.5595 1818.5566l12.47-.48-1.35-35.2 8.86 20.5 4.41-.17 6.86-21.4 1.37 35.49 12.4701-.48-2.51-65.23-11.22.44-10.2 29.5-12.06-28.65-11.6101.45 2.51 65.23zm-68.8602-1.88l12.47.52 1.45-35.21 7.2 21.15 4.41.18 8.54-20.79-1.46 35.49 12.4701.51 2.68-65.22-11.22-.46-12.51 28.6-9.75-29.52-11.6001-.47-2.68 65.22zm137.5404-1.9l29.11-3.15-1.24-11.45-16.7 1.8-1.71-15.75 12.89-1.39-1.24-11.45-12.88 1.39-1.6-14.79 16.7-1.81-1.24-11.45-29.11 3.15 7.02 64.9zm-177.9905-1.12c11.83 1.36 21.02-5.5 23.97-31.06 2.95-25.66-4.46-34.34-16.28-35.7-11.93-1.37-21.11 5.4-24.07 31.05-2.9301 25.47 4.55 34.35 16.38 35.71zm228.4006-5.08l28.8801-4.85-1.91-11.36-16.57 2.78-8.89-53.02-12.31 2.07 10.8 64.38zm-290.6358-5.31l28.836 5.08 1.998-11.35-16.545-2.91 9.323-52.94-12.291-2.17-11.321 64.29zm63.5552-1.05c-4.68-.54-7.19-6.44-5.3-22.84 1.92-16.69 5.67-21.57 10.35-21.03 4.58.52 7.11 6.23 5.2 22.82-1.9 16.5-5.67 21.57-10.25 21.05z" fill="#fff" fill-rule="nonzero"/><path d="M229.8533 921.6555c-5.773 11.93-12.638 22.08-20.5961 30.46-7.957 8.38-16.421 15.1401-25.393 20.2701-8.9711 5.13-17.8261 8.8-26.5632 10.99-8.738 2.18-16.695 3.05-23.872 2.6-5.773-.3-10.922-2.42-15.447-6.34-4.525-3.93-7.0991-8.23-7.7231-12.91-.312-2.87.039-6.34 1.053-10.42 1.014-4.07 2.379-7.55 4.096-10.42 2.184-3.77 5.188-8.26 9.01-13.47 3.823-5.21 7.919-10.61 12.287-16.19 4.369-5.59 8.6211-10.91 12.7551-15.97 4.135-5.06 7.685-9.25 10.649-12.5701 4.057-4.53 8.036-8.68 11.936-12.46 3.901-3.77 7.4501-6.87 10.6491-9.28 3.199-2.42 5.578-3.55 7.138-3.4 2.185 0 4.291.68 6.319 2.04 2.029 1.36 3.55 2.91 4.564 4.64 1.014 1.74.975 3.21-.117 4.42-20.127 21.29-35.808 38.73-47.042 52.31-11.2341 13.59-18.5671 23.26-22.0001 28.99-.624 1.21-1.131 2.53-1.521 3.97-.39 1.43-.507 2.98-.351 4.64.468 3.7701 2.809 5.6601 7.021 5.6601 5.773.15 12.248-1.06 19.426-3.62 7.177-2.57 14.471-6.38 21.8821-11.44 7.411-5.06 14.316-11.21 20.713-18.46 6.397-7.24 11.7021-15.47 15.9141-24.68 4.057-8.91 5.89-17.29 5.5-25.1401-.39-7.85-3.042-14.38-7.957-19.59-4.915-5.21-12.209-8.12-21.883-8.72-4.056-.3-8.971.11-14.7441 1.24-5.773 1.14-11.741 2.8-17.904 4.99-6.163 2.19-12.1311 4.83-17.9041 7.92-5.773 3.1-10.844 6.42-15.213 9.97-4.368 3.55-7.411 7.28-9.127 11.21-2.185 5.13-3.0041 9.32-2.4581 12.57.546 3.24 1.6 5.92 3.16 8.04 1.092 1.51 1.872 2.79 2.34 3.85.468 1.06-.624 2.26-3.276 3.62-1.717.76-3.667.98-5.851.68-2.185-.3-4.135-.91-5.851-1.81-2.341-1.51-4.525-3.81-6.553-6.91-2.029-3.09-3.238-6.83-3.628-11.21-.39-4.38.663-8.98 3.16-13.81 4.212-8.16 10.297-15.14 18.255-20.95 7.957-5.81 16.85-10.46 26.68-13.93 9.8301-3.47 19.6591-5.85 29.4892-7.13 9.83-1.29 18.645-1.4 26.446-.34 11.234 1.2 20.0111 4.26 26.3301 9.17 6.319 4.91 10.571 10.94 12.755 18.12 2.184 7.17 2.652 14.98 1.404 23.44-1.248 8.45-3.9 16.91-7.957 25.36zm70.2122 12.4c1.729-2.78 3.486-5.59 5.271-8.44 4.213-6.71 8.231-12.87 12.053-18.45 3.823-5.59 7.256-10.12 10.298-13.59 3.043-3.47 5.344-5.21 6.904-5.21 1.561 0 3.199 1.02 4.915 3.06 1.716 2.04 3.004 4.3 3.862 6.79.8581 2.49.6631 4.42-.585 5.78-2.185 2.41-4.291 4.71-6.319 6.9-2.029 2.19-4.369 5.02-7.022 8.5 5.461-5.14 10.844-9.78 16.1491-13.93 5.305-4.15 10.259-7.44 14.862-9.85 4.602-2.42 8.386-3.55 11.351-3.4 3.276.15 6.0461 2.34 8.3081 6.57 2.262 4.22 3.393 8.53 3.393 12.91 0 3.17-1.17 6.56-3.51 10.19-2.34 3.62-5.149 7.32-8.426 11.09-3.276 3.78-6.397 7.63-9.361 11.55-3.901 4.99-5.929 8.99-6.085 12.01-.156 1.66.039 3.21.585 4.64.546 1.44 1.365 2.15 2.457 2.15 2.029 0 5.422-2.57 10.181-7.7 4.759-5.13 11.429-13.06 20.01-23.78 1.561-1.96 3.511-2.41 5.851-1.36 2.341 1.06 4.252 2.76 5.734 5.1 1.483 2.34 1.6 4.57.351 6.68-7.177 11.47-14.9 20.65-23.169 27.5201-8.27 6.87-15.759 10.3-22.468 10.3-3.589 0-6.865-1.47-9.8301-4.42-2.964-2.94-5.344-6.3-7.138-10.07-1.794-3.78-2.613-7.02-2.457-9.74.156-4.08 1.326-8.15 3.51-12.23 2.185-4.08 4.837-8.12 7.958-12.12 3.12-4 6.007-7.81 8.659-11.44 4.681-6.18 8.269-10.6 10.766-13.24 2.496-2.64 3.042-3.97 1.638-3.97-1.872 0-4.642 1.4-8.308 4.19-3.667 2.8-7.88 6.53-12.638 11.21-4.759 4.68-9.674 9.86-14.745 15.52s-10.025 11.32-14.861 16.98c-4.8371 5.66-9.1281 10.95-12.8731 15.86-3.744 4.9-6.709 8.87-8.893 11.88l-.702.91c-1.092 1.51-2.419 1.85-3.979 1.02-1.56-.83-2.925-2.49-4.096-4.98-.916-1.95-1.474-4.21-1.672-6.76-4.132 2.42-8.3601 4.45-12.6831 6.08-7.801 2.94-15.135 4.42-22 4.42-4.6811 0-9.5171-1.06-14.5101-3.18-4.993-2.11-9.206-5.05-12.638-8.83-3.433-3.77-5.149-8-5.149-12.68 0-2.42.624-5.51 1.872-9.29 1.248-3.77 2.848-7.62 4.798-11.55 1.95-3.92 3.94-7.24 5.968-9.96 3.901-5.13 8.386-10.31 13.457-15.51 5.071-5.21 10.532-9.55 16.383-13.03 5.851-3.47 11.897-5.2001 18.1381-5.2001 3.589 0 6.826 1.13 9.713 3.39 2.886 2.27 5.187 5.02 6.904 8.27 1.716 3.24 2.574 6.45 2.574 9.62 0 2.42-1.209 5.44-3.627 9.06-2.419 3.63-5.617 7.14-9.596 10.53-3.979 3.4-8.152 6.27-12.521 8.61-4.369 2.34-8.582 3.51-12.638 3.51-2.185 0-4.759-.26-7.724-.79-2.964-.53-5.695-1.17-8.1911-1.93-1.404 2.27-2.535 4.38-3.394 6.34-.858 1.96-1.287 3.7-1.287 5.21 0 3.32 1.366 6.15 4.096 8.49 2.73 2.35 6.358 3.51 10.883 3.51 6.865 0 14.276-2.64 22.2341-7.92 7.4-4.92 15.07-12.18 23.009-21.8zm-46.6472-6.06c-.625.91-1.288 1.81-1.99 2.72-.702.91-1.365 1.81-1.989 2.72 4.681-.46 8.971-1.78 12.872-3.97 3.901-2.19 7.723-5.17 11.468-8.94 5.3051-5.29 8.8541-10.15 10.6491-14.61 1.794-4.45 1.911-6.68.351-6.68-2.341 0-5.383 1.55-9.128 4.64-3.744 3.1-7.606 6.87-11.585 11.33-3.978 4.45-7.528 8.72-10.648 12.79z" fill="#fff" fill-rule="nonzero"/><path d="M1052.2697 1568.1663c-.48.87-.97 1.75-1.46 2.61-4.07 7.12-8.13 13.45-12.2 18.99-4.06 5.54-7.78 9.88-11.16 13.03-3.38 3.15-6.13 4.72-8.25 4.72-1.13 0-2.35-.59-3.6601-1.79-1.31-1.2-2.5-2.61-3.57-4.25-1.06-1.64-1.75-3.21-2.06-4.72-.31-1.51.03-2.58 1.03-3.21 3.63-2.27 7.22-4.79 10.79-7.56 3.56-2.77 7.47-7.24 11.72-13.41-2.37 1.76-5 3.21-7.88 4.34-2.87 1.13-5.94 1.64-9.19 1.51-6.88-.25-12.54-2.23-16.97-5.95-4.44-3.71-7.48-8.62-9.1-14.73-1.63-6.11-1.72-13.07-.28-20.88 1.43-7.81 4.53-15.87 9.28-24.18 6.25-10.83 13.48-19.58 21.67-26.26 8.19-6.67 16.41-11.4901 24.67-14.4501 8.2501-2.96 15.5701-4.06 21.9502-3.31 3.37.38 6.66 1.74 9.85 4.07 3.19 2.32 5.78 5.25 7.78 8.78 2 3.53 3 7.37 3 11.52 0 .69-.1 1.38-.29 2.08 1.55-1.58 3.29-2.96 5.24-4.15 2.88-1.77 5.57-2.65 8.07-2.65 1.88 0 3.22.85 4.03 2.55.82 1.7.6 4.82-.65 9.35-.13.76-.38 1.54-.75 2.36-.38.82-.75 1.73-1.13 2.74 1.5.51 3.03 1.04 4.6 1.61 1.56.56 3.28 1.23 5.16 1.98 4.3701 1.77 7.3401 3.65 8.9101 5.67 1.56 2.01 2.19 4.09 1.87 6.23-.31 2.14-1.03 4.22-2.15 6.24-2.88 4.91-5.82 9.44-8.82 13.6s-5.54 7.84-7.6 11.0501c-2.06 3.21-3.09 5.83-3.09 7.84 0 1.51.43 2.9 1.31 4.16.87 1.26 1.94 1.89 3.19 1.89 2.75 0 6.06-2.14 9.94-6.43 2.59-2.86 5.86-6.77 9.79-11.72 1.77-3.64 3.84-7.48 6.2-11.51 2.88-4.92 5.69-9.48 8.44-13.7 2.75-4.22 4.88-7.46 6.3801-9.73 3.25-4.41 6-6.61 8.25-6.61 1.51-.13 2.91.53 4.22 1.98 1.32 1.45 2.41 3.09 3.29 4.91.87 1.83 1.31 3.25 1.31 4.25 0 1.64-.87 3.72-2.63 6.24-1.75 2.52-4.25 5.89-7.5 10.11s-7.19 9.73-11.82 16.53c-2.87 4.4-4.31 7.81-4.31 10.2 0 1.38.53 2.64 1.59 3.78 1.06 1.13 2.03 1.7 2.91 1.7 1.75 0 4.53-2.14 8.35-6.43 2.99-3.36 6.93-8.16 11.82-14.4.91-1.91 1.9-3.79 2.95-5.62 2.5-4.16 5.41-8.79 8.72-13.89 3.32-5.1 6.7501-10.26 10.3201-15.49 3.56-5.23 6.91-9.98 10.04-14.26 2.75-3.65 5.56-7.08 8.44-10.3 2.87-3.21 5.53-5.85 7.97-7.93 2.44-2.0801 4.2801-3.0601 5.5301-2.9301 1.76 0 3.41.88 4.98 2.65 1.56 1.76 2.75 3.65 3.56 5.66.81 2.02.85 3.53.09 4.54-.87 1.38-2.97 3.96-6.28 7.74-3.32 3.78-7.28 8.41-11.91 13.89s-9.51 11.52-14.63 18.13c-5.13 6.61-10.0101 13.51-14.6401 20.69-1.37 2.27-2.34 4.1201-2.91 5.5701-.56 1.45-.84 2.87-.84 4.25 0 1.77.69 3.31 2.06 4.63 1.38 1.32 2.75 1.99 4.13 1.99 2.5 0 5.72-2.15 9.66-6.43 2.88-3.13 6.55-7.51 11-13.13.88-1.83 1.83-3.62 2.83-5.38 2.51-4.16 5.41-8.79 8.73-13.89 3.3101-5.1 6.7501-10.26 10.3201-15.49 3.56-5.23 6.91-9.98 10.03-14.26 2.75-3.65 5.57-7.08 8.44-10.3 2.88-3.21 5.54-5.85 7.9801-7.93 2.43-2.0801 4.28-3.0601 5.53-2.9301 1.75 0 3.41.88 4.97 2.65 1.57 1.76 2.75 3.65 3.57 5.66.81 2.02.84 3.53.09 4.54-.87 1.38-2.97 3.96-6.29 7.74-3.31 3.78-7.28 8.41-11.91 13.89-4.62 5.48-9.5 11.52-14.63 18.13-5.13 6.61-10 13.51-14.6301 20.69-1.38 2.27-2.35 4.1201-2.91 5.5701-.56 1.45-.84 2.87-.84 4.25 0 1.77.68 3.31 2.06 4.63 1.37 1.32 2.75 1.99 4.13 1.99 2.5 0 5.72-2.15 9.66-6.43 3.94-4.28 9.35-10.89 16.23-19.83 1.25-1.52 2.81-1.86 4.6901-1.04 1.87.82 3.4 2.2 4.59 4.15 1.19 1.96 1.28 3.81.28 5.58-3.75 6.42-7.91 11.99-12.47 16.72-4.57 4.72-9.1 8.37-13.6 10.95-4.51 2.58-8.57 3.87-12.2001 3.87-2.87 0-5.78-1.07-8.72-3.21-2.94-2.14-5.38-4.69-7.32-7.65-.05-.07-.1-.15-.14-.22-3.27 2.95-6.52 5.36-9.75 7.21-4.5 2.58-8.5701 3.87-12.1901 3.87-2.88 0-5.79-1.07-8.73-3.21-2.87-2.09-5.26-4.57-7.18-7.45-1.26 1.27-2.54 2.46-3.83 3.58-6.63 5.73-12.7001 8.6-18.2001 8.6-2.88 0-5.66-1.14-8.35-3.4-2.43-2.05-4.44-4.43-6.06-7.14-3.03 2.71-6.05 4.93-9.0801 6.66-4.51 2.58-8.57 3.88-12.2 3.88-3.12 0-6.03-.92-8.72-2.74-2.69-1.83-4.85-4.22-6.47-7.18-1.63-2.96-2.44-6.08-2.44-9.35 0-3.28.62-6.39 1.87-9.35s3.01-6.27 5.26-9.92c1.5-2.27 3.15-4.82 4.97-7.65 1.81-2.84 3.34-5.39 4.59-7.65 1.63-2.52 2.69-4.54 3.19-6.05.5-1.51-.19-2.52-2.06-3.02-1-.25-1.94-.51-2.81-.76-.88-.25-1.76-.44-2.63-.56-2.25 4.53-4.88 9.5-7.88 14.92s-6.13 10.86-9.3801 16.34c-3.25 5.48-6.41 10.61-9.47 15.4-3.07 4.78-5.85 8.88-8.35 12.28-.88 1.13-2.13 1.45-3.75.94-1.63-.5-3.16-1.48-4.6-2.93-1.19-1.2-2.04-2.57-2.55-4.12zm-103.6703-29.22c6.63-9.57 11.66-18.8 15.1-27.68 3.44-8.88 5.16-16.4 5.16-22.57 0-6.43-1.72-10.93-5.16-13.5101-3.44-2.58-7.35-3.87-11.72-3.87-4.76 0-9.51 1.64-14.26 4.91-4.75 3.27-9.1 7.56-13.04 12.85-3.94 5.29-7.13 11.08-9.5701 17.38-2.44 6.29-3.72 12.46-3.84 18.51 0 6.17 1.47 11.49 4.4 15.96 2.94 4.47 6.54 6.71 10.79 6.71h2.07c1.37 0 2.06.31 2.06.94 0 1.14-.91 2.18-2.72 3.1201-1.82.95-3.91 1.7-6.29 2.27-2.37.56-4.37.85-6 .85-6.13 0-11.47-2.11-16.04-6.33-4.56-4.22-6.85-10.3-6.85-18.23 0-5.67 1.13-11.59 3.38-17.76 2.25-6.17 5.38-12.18 9.38-18.04 4-5.86 8.6-11.11 13.79-15.77 5.19-4.6701 10.75-8.3801 16.7-11.1501 5.94-2.77 11.9701-4.16 18.1001-4.16 4.88 0 9.41.95 13.6 2.84 4.19 1.89 7.57 5.07 10.13 9.54 2.5601 4.47 3.8401 10.61 3.8401 18.42 0 6.92-1.4 14.86-4.22 23.8-2.81 8.94-7.47 18.26-13.97 27.96-3.25 5.04-7.04 9.7901-11.35 14.2601-4.3201 4.47-9.0401 8.54-14.1601 12.19 5.62 3.78 11.09 7.43 16.41 10.95 5.32 3.53 10.66 5.86 16.04 6.99 1 .26 1.81.38 2.44.38.87 0 1.62-.19 2.25-.56.63-.38 1.19-.57 1.69-.57.37 0 .56.38.56 1.13 0 1.39-.69 3.28-2.06 5.67-1.38 2.39-3.35 4.5-5.91 6.33-2.57 1.82-5.79 2.74-9.66 2.74-4.26 0-8.29-1.29-12.1-3.87-3.82-2.59-7.57-5.89-11.26-9.92-3.69-4.03-7.47-8.06-11.35-12.09-4.25 2.01-8.66 3.55-13.2201 4.62-4.57 1.07-9.17 1.61-13.79 1.61-7.13 0-12.79-1.45-16.9801-4.34-4.19-2.9-6.29-6.68-6.29-11.34 0-3.65 1.54-7.12 4.6-10.39 3.06-3.27 8.04-4.91 14.91-4.91 5.51 0 10.73.85 15.67 2.55 4.9401 1.7 9.7201 3.81 14.3501 6.33 4-2.65 8.07-5.98 12.19-10.01 4.13-4.04 8.2-8.95 12.2001-14.74zm-142.4724-52.55c1.926-1.96 4.132-3.87 6.619-5.73 5.815-4.35 12.944-7.8101 21.386-10.3901 8.447-2.58 17.8571-3.56 28.2371-2.93 8.5.38 15.54 1.95 21.1001 4.72 5.57 2.77 9.76 6.24 12.57 10.39 2.81 4.16 4.19 8.57 4.13 13.23-.07 4.66-1.47 9.19-4.22 13.6-3.13 4.91-7.38 8.85-12.76 11.81-5.38 2.96-11.38 5.13-18.01 6.51 3.25 2.65 5.38 5.86 6.38 9.64 1 3.78 1.09 7.68.28 11.71-.81 4.0301-2.22 7.8101-4.22 11.3401-3 5.41-7.29 9.95-12.85 13.6-5.57 3.65-11.7301 6.39-18.4801 8.22-6.753 1.82-13.444 2.61-20.073 2.36-5.5031-.25-10.0361-2.24-13.6011-5.95-3.564-3.72-5.471-7.78-5.722-12.19-.375-6.92 1.689-14.36 6.191-22.29 2.376-4.28 5.253-8.91 8.63-13.88 3.377-4.98 6.91-9.89 10.599-14.74s7.098-9.16 10.224-12.94c3.252-3.78 6.472-7.37 9.662-10.77 3.19-3.4 6.0701-6.17 8.6301-8.31 2.56-2.14 4.47-3.21 5.72-3.21 1.75 0 3.44.69 5.07 2.07 1.62 1.39 2.84 2.9 3.65 4.54.82 1.64.79 2.96-.09 3.97-5.5 6.17-10.44 11.71-14.82 16.62-4.38 4.91-8.25 9.38-11.631 13.41h5.061c6.26.13 12.07-.63 17.45-2.26 5.38-1.64 9.98-3.94 13.79-6.9 3.81-2.96 6.5301-6.14 8.1601-9.54 2-4.03 2.41-7.9 1.22-11.62-1.19-3.71-4-6.89-8.44-9.54-4.44-2.64-10.67-4.15-18.67-4.53-6.75-.38-13.2901.57-19.6031 2.83-6.316 2.27-11.756 5.13-16.321 8.6-4.565 3.46-7.6601 6.96-9.2861 10.48-2.001 4.29-2.72 7.81-2.157 10.58.562 2.77 1.469 5.04 2.72 6.8.875 1.14 1.501 2.14 1.876 3.03.375.88-.563 1.95-2.814 3.21-1.251.63-2.752.85-4.503.66-1.751-.19-3.251-.79-4.502-1.8-1.644-1.28-3.008-3-4.094-5.18-2.203 2.09-4.716 3.91-7.539 5.47-5.378 2.96-11.3811 5.13-18.0101 6.51 3.252 2.65 5.378 5.86 6.379 9.64 1 3.78 1.094 7.68.281 11.71-.813 4.03-2.22 7.81-4.221 11.34-3.001 5.41-7.285 9.95-12.85 13.6-5.566 3.65-11.725 6.39-18.4791 8.22-6.753 1.82-13.444 2.61-20.073 2.36-5.503-.25-10.0361-2.24-13.6011-5.95-3.564-3.72-5.471-7.78-5.721-12.19-.376-6.92 1.688-14.36 6.19-22.29 2.377-4.28 5.253-8.91 8.63-13.88 3.377-4.98 6.91-9.89 10.599-14.74 3.69-4.85 7.098-9.16 10.224-12.94 3.252-3.78 6.4721-7.37 9.6621-10.77 3.189-3.4 6.065-6.17 8.629-8.31 2.564-2.14 4.471-3.21 5.722-3.21 1.751 0 3.439.69 5.065 2.07 1.626 1.39 2.845 2.9 3.658 4.54.813 1.64.782 2.96-.094 3.97-5.503 6.17-10.443 11.71-14.82 16.62-4.377 4.91-8.254 9.38-11.631 13.41h5.065c6.253.13 12.069-.63 17.447-2.26 5.378-1.64 9.9741-3.94 13.7881-6.9 3.815-2.96 6.535-6.14 8.161-9.54 2.001-4.03 2.407-7.9 1.219-11.62-1.188-3.71-4.002-6.89-8.442-9.54-4.44-2.64-10.662-4.15-18.666-4.53-6.753-.38-13.288.57-19.6041 2.83-6.316 2.27-11.756 5.13-16.321 8.6-4.565 3.46-7.66 6.96-9.286 10.48-2.001 4.29-2.72 7.81-2.157 10.58.562 2.77 1.469 5.04 2.72 6.8.875 1.14 1.501 2.14 1.876 3.03.375.88-.563 1.95-2.814 3.21-1.251.63-2.752.85-4.5021.66-1.751-.19-3.252-.79-4.503-1.8-2.751-2.14-4.721-5.54-5.909-10.2-1.188-4.66-.157-10.01 3.095-16.06 2.752-4.91 7.035-9.54 12.851-13.88 5.815-4.35 12.944-7.8101 21.386-10.3901 8.4421-2.58 17.8531-3.56 28.2332-2.93 8.505.38 15.54 1.95 21.105 4.72 5.566 2.77 9.755 6.24 12.569 10.39.872 1.29 1.605 2.6 2.201 3.94zm91.2522 86.55c2.26 0 4.76-.28 7.51-.85 2.75-.56 5.69-1.48 8.8201-2.73-3.13-2.52-6.48-4.54-10.04-6.05-3.57-1.51-7.35-2.27-11.35-2.27-2 0-3.66.6-4.97 1.8-1.32 1.19-1.97 2.48-1.97 3.87 0 1.76 1.12 3.24 3.37 4.44 2.26 1.2 5.13 1.79 8.63 1.79zm-151.8904-42.12c-.5 0-1.219-.29-2.157-.85-.938-.57-1.782-1.23-2.533-1.99-4.627 5.67-8.223 10.39-10.786 14.17-2.564 3.78-4.534 6.99-5.91 9.63-1.25 2.27-2.22 4.48-2.908 6.62-.687 2.14-1.031 4.03-1.031 5.67.125 2.01.781 3.58 1.969 4.72 1.189 1.13 2.658 1.7 4.409 1.7 4.753.25 9.568-.35 14.445-1.8 4.878-1.45 9.286-3.62 13.226-6.51 3.939-2.9 6.847-6.24 8.723-10.02 3.252-6.42 3.127-11.58-.375-15.49-3.502-3.9-9.192-5.85-17.072-5.85zm92.1133 0c-.5 0-1.219-.29-2.157-.85-.938-.57-1.782-1.23-2.533-1.99-4.627 5.67-8.223 10.39-10.787 14.17-2.563 3.78-4.533 6.99-5.909 9.63-1.2511 2.27-2.2201 4.48-2.9081 6.62-.688 2.14-1.031 4.03-1.031 5.67.125 2.01.781 3.58 1.969 4.72 1.188 1.13 2.658 1.7 4.409 1.7 4.752.25 9.567-.35 14.445-1.8 4.877-1.45 9.289-3.62 13.2291-6.51 3.94-2.9 6.84-6.24 8.72-10.02 3.25-6.42 3.13-11.58-.38-15.49-3.5-3.9-9.19-5.85-17.067-5.85zm245.9177-29.36c-1.22 1.1-2.58 2.07-4.1 2.91-2.51 1.38-5.13 2.08-7.88 2.08-2.51 0-4.41-.73-5.73-2.18-1.31-1.44-1.22-2.99.29-4.62 3.12-3.53 5.44-7.09 6.94-10.68s2.15-6.58 1.97-8.97c-.19-2.39-1.35-3.59-3.47-3.59-4.01 0-8.6.94-13.79 2.83-5.19 1.89-10.5701 4.63-16.1401 8.22-5.56 3.59-10.84 8.06-15.85 13.41-5 5.36-9.31 11.56-12.9401 18.61-4.38 8.56-6.85 16.25-7.41 23.05-.57 6.8.43 12.21 3 16.24 2.56 4.04 6.28 6.24 11.16 6.62 4 .25 8.07-.95 12.2-3.59 4.12-2.65 7.91-5.89 11.34-9.73 3.4401-3.84 5.9801-7.4 7.6001-10.67 0-.13.03-.22.1-.29.06-.06.09-.16.09-.28l.56-.95c.38-1 1.22-1.32 2.54-.94 1.31.38 2.65 1.07 4.03 2.08 1.38 1 2.47 2.2 3.28 3.59.82 1.38.97 2.64.47 3.78-.84 2.02-1.71 4.02-2.61 6 5.4-6.89 10.36-13.68 14.88-20.36 6.1301-9.07 10.7501-16.69 13.8801-22.86-3.38-2.02-5.06-4.16-5.06-6.42 0-1.06.21-2.16.65-3.29zm85.8703 1.77c-1.12 0-2.37-.53-3.75-1.6s-2.56-2.3-3.56-3.68c-1.01-1.39-1.51-2.65-1.51-3.78 0-1.51.6-3.47 1.79-5.86 1.18-2.39 2.66-4.57 4.41-6.52 1.75-1.95 3.5-2.93 5.25-2.93 1.12 0 2.47.73 4.03 2.18 1.56 1.44 2.97 3.15 4.22 5.1 1.25 1.95 1.88 3.81 1.88 5.57 0 1.76-.75 3.53-2.25 5.29-1.5 1.76-3.25 3.24-5.25 4.44-2.01 1.2-3.76 1.79-5.26 1.79z" fill="#fff" fill-rule="nonzero"/><path d="M182.6801 1418.4461c156.2975 270.7804 448.9044 453.0406 784.0794 453.0406 499.6715 0 904.7327-405.0605 904.7327-904.7211 0-20.39-.68-40.62-2-60.63 2.98-7.26 5.8-14.28 8.41-20.9601 2.37 26.9 3.59 54.1 3.59 81.5901 0 505.1906-409.5412 914.721-914.7327 914.721-340.901 0-638.247-186.4801-795.6074-463.0405h11.528zm192.8296-16.6c133.6314 181.3102 348.703 298.9504 591.2498 298.9504 271.4908 0 508.5615-147.3902 635.5319-366.5005l23.49-26.16c-123.5903 238.0603-372.311 400.6605-659.022 400.6605-249.4527 0-470.1563-123.0902-604.6918-311.8604l13.442 4.91zm1124.2914 25.25c-129.1504 149.4102-320.051 243.9503-533.0416 243.9503-212.9977 0-403.9113-94.55-533.0556-243.9703h10.619c127.5974 144.7002 314.358 235.9703 522.4366 235.9703 208.0606 0 394.8011-91.25 522.4215-235.9503h10.62zm245.3107-921.802C1587.4313 239.8996 1297.8704 62.0344 966.7595 62.0344c-499.6655 0-904.7257 405.0605-904.7257 904.7311 0 63.45 6.533 125.3901 18.951 185.1002v44.09c-18.895-73.22-28.951-150.0301-28.951-229.1902 0-505.1936 409.5371-914.7311 914.7257-914.7311 336.731 0 630.9618 181.9482 789.7423 452.8835l.3-.008.01.535c4.42 7.542 8.75 14.194 12.97 21.914-4.16-.399-12.41-.457-12.41-.457-203.9706 5.328-434.7013 85.3832-662.752 178.8833-220.8306 90.55-439.1223 193.7802-628.3988 255.2803v-23.14c187.2355-61.5801 402.3982-163.2502 620.0588-252.4903 144.6804-59.3301 290.4709-113.1282 430.0013-146.3312-33.1901-42.587-71.2302-81.2191-113.2903-115.0712v125.8852c-10.64 3.225-21.3101 6.543-32.0001 9.951V399.76a697.4662 697.4662 0 00-50.2502-32.722V576.443c-10.66 3.627-21.32 7.329-32 11.101V349.23c-16.3901-8.558-33.1502-16.483-50.2602-23.741v280.2563c-10.66 3.95-21.32 7.96-32.0001 12.03V312.8418a689.8334 689.8334 0 00-50.2502-16.277v340.7004c-10.67 4.21-21.33 8.46-32 12.75V524.7991c-9.7201 29.503-27.2902 55.452-50.2502 75.376v70.3101c-10.67 4.4-21.34 8.83-32.0001 13.28v-61.65c-15.49 8.2-32.3901 14.08-50.2502 17.17v65.63c-10.67 4.53-21.33 9.07-32 13.6201v-76.76c-17.5201-.28-34.4002-3.2101-50.2502-8.4001v106.6901c-10.69 4.59-21.35 9.18-32.0001 13.76V619.0552c-19.53-11.28-36.6101-26.329-50.2522-44.148v200.5182c-10.695 4.58-21.358 9.15-32 13.69V503.483c-1.967-10.343-2.997-21.023-2.997-31.942s1.03-21.599 2.997-31.942V291.7628a690.2556 690.2556 0 00-50.2512 14.779v503.9136c-10.714 4.51-21.384 8.99-32.0001 13.41V318.1718c-17.087 6.692-33.8441 14.039-50.2522 22.013v504.3707c-10.723 4.36-21.392 8.66-32 12.88V356.7819a695.3482 695.3482 0 00-50.2512 30.582v489.6916c-10.735 4.11-21.401 8.12-32 12.04V410.0659a700.523 700.523 0 00-50.2512 41.626v455.4236c-10.754 3.72-21.4211 7.33-32.0001 10.81V482.735c-97.5953 100.9041-164.9485 231.2103-187.4696 376.3405-3.024 1.27-5.922 2.54-8.671 3.82 50.1981-339.7044 342.993-600.4207 696.679-600.4207 227.1907 0 429.2513 107.572 558.0817 274.6153 10.68-2.482 21.33-4.841 31.9401-7.072-133.7104-180.3642-348.211-297.2894-590.0217-297.2894-361.7731 0-662.42 261.7203-722.9262 606.1267-2.222-2.82-4.471-5.41-6.729-7.78 63.7642-345.0254 366.193-606.3467 729.6552-606.3467 245.7407 0 463.5913 119.4592 598.6517 303.5044 61.5502-12.552 121.6704-20.644 179.7006-22.939zm-626.3719-33.7531c0 86.2401-70.0102 156.2542-156.2505 156.2542-86.2402 0-156.2594-70.014-156.2594-156.2542 0-86.2401 70.0192-156.2562 156.2594-156.2562 86.2403 0 156.2505 70.0161 156.2505 156.2562zm-44.7601-128.6301c22.95 19.913 40.5301 45.864 50.2501 75.372V288.3568a691.5825 691.5825 0 00-50.2501-9.677v64.231zm-196.5006-18.888v-47.8761a692.6912 692.6912 0 00-50.2522 8.313v83.715c13.642-17.82 30.7321-32.869 50.2522-44.152zm114.2503-20.2311c17.85 3.095 34.7501 8.975 50.2502 17.18v-46.48c-16.57-1.782-33.3301-2.981-50.2502-3.577v32.877zm-32-2.485v-30.796c-16.8901.166-33.6402.934-50.2502 2.287v36.914c15.86-5.197 32.74-8.127 50.2501-8.405z" fill="#fff"/><path d="M1009.6796 611.6952c-.36-.09-.72-.13-1.1-.15-1.68-.11-3.28.21-4.21.07-.86-.14-1.51-.14-2.21-.04-1.03-.05-1.94.17-2.63.17-2.57.03-3.96-.41-6.38-.3-.4.02-.82.1-1.25.22-.14-.04-.25-.08-.35-.11-.98-.27-1.98-.04-3.19.08-2.05.22-3.78.08-5.33.15-.3601-.09-.7201-.13-1.1001-.16-1.68-.11-3.27.22-4.21.08-.87-.14-1.51-.14-2.21-.04-1.03-.05-1.94.17-2.63.17-2.57.03-3.96-.41-6.38-.3-.77.04-1.61.31-2.51.63-.4.05-.82.11-1.31.19-.28.04-.48.07-.65.1-2.27-.19-3.59.23-5.42.41-1.44.08-2.23.13-3.27.1-1.25-.03-2.1-.24-3.23-.29-.33-.01-.64 0-.9301.02-.58-.09-1.08-.15-1.43-.09-1.29-.09-2.06.06-3.31.1-1.07-.09-1.83-.04-2.72.09-1.97-.11-3.32-.44-5.42-.4-.39.01-.8.08-1.23.19-.01 0-.03 0-.04-.01-.13-.04-.24-.08-.33-.11-.97-.29-1.97-.09-3.19.01-2.05.17-3.78-.02-5.33.02-.36-.1-.71-.15-1.1-.19-1.67-.15-3.28.14-4.21-.03-.86-.15-1.51-.17-2.21-.08-1.02-.08-1.94.11-2.63.1-.7701-.01-1.4201-.06-2.0301-.13-.26-.15-.5-.3-.71-.39-.44-.2-.84-.37-1.2-.49l-.12.64c-.04-.01-.08-.02-.11-.03-.09-.03-.17-.05-.25-.07l-4.98-1.25 4.71 2.74c.11.06.24.08.35.13l-.1.54c.55.01 1-.04 1.48-.08.35.08.7.16 1.1.25.26.07.5.13.73.19.25.11.65.17.91.12.48-.01.93-.02 1.37-.03.88 0 1.71.02 2.48-.02.36.09.72.13 1.1.15 1.68.11 3.27-.22 4.21-.07.86.13 1.51.13 2.21.02 1.03.05 1.94-.16 2.63-.17 2.57-.03 3.95.4 6.37.29.31-.02.64-.09.97-.17.19.02.36.02.54.03.03.01.07.02.09.03.98.27 1.98.04 3.19-.09 2.05-.22 3.78-.08 5.3301-.16.36.09.72.13 1.1.16.24.01.47.01.7.01.29.03.57.08.88.1.34.02.64.02.94.01.57.1 1.07.17 1.42.12 1.29.13 2.06 0 3.31-.01 1.52.17 2.41.05 3.96-.21.37-.06.66-.07.93-.08.22.02.45.03.66.05.06.01.15.01.19.03.01-.01.03-.01.05-.01.73.06 1.48.1 2.38.06.96-.02 2-.39 3.19-.77.88.02 1.7.05 2.48.04.35.1.71.15 1.09.18 1.68.16 3.28-.13 4.21.04.86.16 1.5.18 2.21.09 1.03.07 1.94-.11 2.63-.1 2.5701.04 3.9501.51 6.3701.46.41-.01.82-.08 1.26-.19.13.05.25.09.34.13.97.29 1.98.09 3.19-.01 2.05-.17 3.78.02 5.34-.01.35.1.7.15 1.09.18 1.68.16 3.28-.13 4.21.04.86.16 1.5.18 2.21.09 1.02.07 1.94-.11 2.63-.1 1.62.02 2.76.22 3.99.35.06.02.12.04.17.06.16.05.74.18 1.11-.01.28-.08.5-.16.75-.26.43-.2 1-.46 1.55-.71.4701-.19.8701-.36 1.2101-.5l4.63-1.92-4.97.06c-1.56.02-2.8.04-4.03.05zm26.35-12.68c-1.45.05-3 .45-4.8.87-1.32.01-2.54.02-3.72.03-.53-.09-1.07-.13-1.65-.15-2.52-.11-4.93.23-6.33.08-1.3-.13-2.27-.13-3.32-.02-1.55-.04-2.92.17-3.96.18-3.87.04-5.95-.39-9.59-.27-.61.02-1.24.1-1.89.22-.2-.04-.37-.08-.52-.11-1.47-.26-2.98-.04-4.79.1-3.09.23-5.69.09-8.03.17-.54-.09-1.08-.13-1.66-.15-2.52-.11-4.9201.22-6.3201.08-1.3-.13-2.27-.13-3.33-.02-1.03-.03-1.93.04-2.75.11-.58 0-1.14.02-1.72.07-.56-.01-1.08-.01-1.57-.03-.83-.16-1.62-.3-2.24-.35-2.82-.23-4.69-.04-6.74.16-3.09.16-5.69-.03-8.03 0-.54-.1-1.07-.15-1.65-.19-2.5201-.16-4.9301.12-6.3301-.05-1.3-.16-2.27-.18-3.32-.09-1.55-.08-2.93.1-3.97.09-3.86-.05-5.94-.52-9.58-.48-.61.01-1.24.08-1.89.19-.2-.05-.37-.09-.52-.13-1.47-.29-2.97-.1-4.79 0-3.09.16-5.6901-.04-8.0301 0-.54-.11-1.07-.16-1.66-.19-2.52-.16-4.92.12-6.32-.05-1.3-.16-2.27-.18-3.33-.1-1.54-.07-2.91.11-3.96.1-3.87-.05-5.94-.52-9.58-.48-.7.01-1.43.1-2.2.23l-5.6201.97 4.89 1.58c.98.32 2.25.73 3.49 1.13-.76-.48-1.79-1.37-2.81-2.24l-.22-.19.67.13h-.41c1.01.61 2.05 1.18 3.07 1.77.47-.01.94-.01 1.4-.01.22.06.43.13.65.17 1.47.26 2.97.03 4.79-.11 2.17-.17 4.04-.16 5.81-.16.75-.01 1.5-.02 2.25-.02.52.09 1.05.12 1.63.15 2.52.1 4.92-.24 6.32-.1 1.3001.13 2.2701.13 3.3301.02 1.55.04 2.92-.18 3.96-.19 3.87-.04 5.94.39 9.59.26.6-.02 1.23-.11 1.89-.23.19.05.37.09.52.12 1.46.26 2.97.03 4.79-.11 3.09-.23 5.69-.1 8.03-.18.54.09 1.07.12 1.65.15 2.2301.09 4.3301-.15 5.7701-.11.31.01.63.03.91.03 1.11.09 2.02.1 2.97 0 .34.01.64-.02.96-.03 1.7.11 2.91.05 4.51-.1 1.04.2 2.06.4 2.81.43 1.49.09 2.67.05 3.79-.02.92 0 1.88-.06 2.96-.11 3.08-.16 5.69.04 8.03.01.53.1 1.07.15 1.6501.19 2.52.16 4.93-.12 6.33.06 1.29.16 2.26.18 3.32.1 1.55.08 2.92-.11 3.96-.09 3.87.05 5.94.52 9.59.49.6-.01 1.23-.08 1.89-.18.2.04.37.09.51.12 1.47.3 2.98.1 4.8.01 3.0901-.16 5.6901.04 8.0301.01.53.11 1.07.16 1.65.19 2.52.16 4.93-.11 6.33.06 1.3.16 2.27.19 3.32.1 1.55.08 2.92-.1 3.96-.09.62.02 1.2.04 1.76.06l.98.04c.37.06.81-.36 1-.4.89-.44 1.76-.86 2.62-1.28l4-1.96-4.62-.23c-1.01-.04-2.1-.07-3.37-.03zm13.3401-11.946c-.66-.09-1.32-.128-2.03-.152-3.09-.1-6.04.236-7.76.096-1.59-.128-2.78-.13-4.08-.02-1.89-.042-3.58.176-4.85.186-4.75.04-7.29-.384-11.76-.26-.75.022-1.52.106-2.32.228-.2401-.044-.4501-.082-.6401-.116-1.8-.258-3.64-.028-5.87.11-3.79.232-6.98.096-9.85.18-.66-.09-1.32-.128-2.03-.152-3.09-.1-6.04.236-7.76.098-1.59-.13-2.78-.132-4.07-.02-1.9-.044-3.5801.174-4.8601.186-4.74.04-7.29-.386-11.76-.26-1.46.04-3.08.338-4.81.668-.66.046-1.37.1-2.17.168-.48.04-.87.074-1.21.102-4.18-.166-6.61.26-9.98.454-1.42.048-2.4901.084-3.4701.104-1.31-.018-2.63-.038-3.94-.054-.56-.076-1.11-.132-1.71-.162-1.7-.088-3.33-.048-4.77-.018-.98-.08-1.84-.128-2.45-.072-.46-.014-.87-.016-1.27-.016-1.22-.096-2.27-.122-3.34-.052-1.9-.078-3.58.106-4.86.092-4.74-.054-7.28-.528-11.7501-.492-.75.006-1.52.076-2.32.18-.24-.048-.45-.09-.64-.126-1.79-.294-3.64-.1-5.87-.008-3.79.158-6.98-.04-9.85-.012-.66-.104-1.31-.154-2.03-.192-3.08-.16-6.04.116-7.75-.056-1.6-.16-2.79-.186-4.0801-.1-1.9-.08-3.58.104-4.86.09-2.59-.03-4.53-.182-6.49-.312-.19-.156-.41-.352-.59-.496l-.16.448c-.04-.002-.09-.006-.13-.008-.11-.022-.22-.044-.32-.062l-2.36-.35 1.61 1.626c.18.176.4.322.59.488l-.12.334c.18.002.33-.006.51-.006.35.294.67.604 1.07.892.3.152.51.54.88.49.3-.018.61-.036.93-.054.49-.034 1.01-.07 1.53-.108 3.78-.236 6.97-.104 9.84-.194.66.09 1.32.128 2.03.15 3.09.096 6.04-.244 7.76-.106 1.59.126 2.78.128 4.07.014 1.9.04 3.58-.18 4.86-.192 4.74-.046 7.29.376 11.7601.246.74-.022 1.51-.108 2.31-.23.24.042.45.08.64.114 1.8.256 3.64.024 5.87-.116 3.79-.238 6.98-.106 9.85-.194.66.09 1.31.126 2.03.148 1.5.048 2.96-.01 4.27-.064.1-.002.2.004.29.002 1.06.11 1.98.184 2.63.138 2.39.128 3.81.006 6.1201.006 2.79.182 4.43.062 7.28-.184.53-.044.9-.046 1.31-.06 2.05.094 4 .198 6.54.132 1.78-.014 3.69-.38 5.89-.752 1.62.022 3.12.04 4.56.058.66.106 1.31.158 2.03.194 3.09.164 6.0401-.108 7.7501.066 1.6.162 2.79.188 4.08.106 1.9.08 3.58-.102 4.86-.086 4.74.058 7.28.536 11.75.504.75-.004 1.52-.074 2.32-.178l.64.128c1.79.296 3.64.104 5.87.014 3.7901-.154 6.9801.05 9.8501.024.65.104 1.31.156 2.02.194 3.09.164 6.04-.11 7.76.064 1.59.162 2.78.19 4.08.106 1.89.082 3.58-.1 4.85-.086 2.99.038 5.1.24 7.3701.378.11.02.23.044.32.062.9.148 1.81.174 2.77.152.47-.02.97-.04 1.5-.062.35-.012.71-.024 1.07-.036.42.008.78-.548 1.04-.698l3.97-3.342-2.65.024c-2.8.028-5.14.05-7.34.072zm12.14-12.217c-.75-.09-1.5-.128-2.31-.15-3.52-.098-6.89.238-8.85.1-1.81-.128-3.17-.13-4.64-.018-2.17-.042-4.09.176-5.54.188-5.41.044-8.31-.38-13.41-.254-.85.022-1.72.108-2.64.228-.27-.042-.51-.08-.73-.114-2.05-.258-4.15-.026-6.7.112-4.3101.234-7.9501.1-11.2201.186-.75-.09-1.5-.128-2.32-.15-3.52-.098-6.88.238-8.84.1-1.82-.128-3.17-.13-4.65-.018-2.16-.042-4.08.178-5.54.188-5.4001.044-8.3101-.38-13.4101-.252-1.67.042-3.52.34-5.5.676-.75.044-1.54.098-2.44.164-.53.04-.98.074-1.37.102-4.77-.164-7.55.264-11.38.46-1.2001.036-2.1501.064-3.0301.086-1.93-.028-3.86-.056-5.78-.08-.52-.054-1.04-.108-1.61-.136-2.09-.096-4.08-.042-5.8-.014-.95-.06-1.8-.098-2.41-.048-.31-.008-.56-.006-.83-.008-1.71-.144-3.03-.172-4.45-.092-1.83-.068-3.43.038-4.78.068-1.02-.01-2.04-.022-3.06-.032-4.0201-.138-6.7801-.472-11.1001-.444-.85.006-1.72.076-2.64.18-.27-.048-.51-.09-.72-.128-2.05-.294-4.16-.102-6.71-.01-4.31.158-7.95-.044-11.22-.016-.75-.104-1.5-.156-2.31-.192-3.5201-.164-6.8901.112-8.8501-.062-1.81-.16-3.17-.186-4.64-.102-2.17-.08-4.08.104-5.54.088-3.08-.03-5.35-.196-7.67-.328-.11-.12-.23-.252-.34-.368l-.15.34c-.08-.006-.16-.01-.25-.016-.12-.02-.25-.042-.36-.062l-.25-.032-1.64-.218 1.11 1.462c.18.248.39.482.6.718l-.08.17c.08 0 .14-.002.22-.002.07.088.14.182.22.27l.56.59c.29.194.47.726.89.658 1.11-.062 2.36-.132 3.67-.206 4.32-.238 7.95-.108 11.23-.198.75.088 1.49.126 2.31.148 3.52.092 6.88-.248 8.84-.112 1.82.126 3.17.126 4.65.012 2.16.04 4.08-.182 5.54-.194 5.4-.05 8.3.37 13.4.238.85-.022 1.72-.11 2.64-.232.27.042.51.08.73.114 2.05.256 4.1501.022 6.7001-.12 4.31-.24 7.95-.108 11.22-.2.75.09 1.5.128 2.31.148 1.89.052 3.71-.02 5.32-.08 1.15.104 2.16.174 2.87.128 2.72.132 4.34.01 6.97.01 3.1901.184 5.0601.064 8.3101-.18.43-.032.82-.054 1.18-.068 2.48.096 4.74.212 7.78.142 2.02-.01 4.2-.376 6.71-.746 1.86.022 3.56.042 5.2.06.75.106 1.5.158 2.32.196 3.5201.166 6.8801-.106 8.8401.07 1.81.162 3.17.19 4.65.108 2.16.082 4.08-.1 5.53-.082 5.41.06 8.31.54 13.41.512.84-.006 1.72-.074 2.64-.178.27.048.5.09.7201.13 2.05.296 4.16.106 6.7.016 4.32-.152 7.95.054 11.23.03.75.104 1.49.156 2.31.194 3.52.166 6.88-.104 8.84.07 1.82.164 3.17.192 4.6501.108 2.16.084 4.08-.098 5.54-.082 3.4.038 5.81.242 8.4.382.12.02.25.044.36.062 1.03.148 2.06.174 3.16.154 1.2-.04 2.55-.086 3.97-.132.31-.258.59-.628.83-.88l.51-.562 2.43-2.662-2.19.02c-3.16.028-5.82.052-8.32.074zm-88.1402-12.051c4.51-.012 7.61.314 12.85.275 1.6-.012 3.71-.23 6.08-.19 1.62-.112 3.11-.11 5.11.016 2.15.138 5.84-.198 9.71-.102.89.024 1.72.06 2.54.152 3.5901-.088 7.5901.046 12.3201-.19 2.8-.138 5.11-.37 7.36-.114.24.036.51.074.8.116 1-.122 1.97-.208 2.9-.228 5.59-.128 8.78.294 14.7201.25 1.6-.012 3.7-.23 6.08-.19 1.62-.112 3.11-.11 5.1.018 2.15.138 5.85-.2 9.71-.102.9.022 1.72.06 2.54.15 2.74-.022 5.66-.046 9.1201-.076l1.93-.016-2.1 2.78c-.22.288-.44.584-.67.886-.15.14-.23.464-.46.46l-.69.01c-3.17.086-5.21.278-7.55-.018-.12-.02-.26-.042-.39-.064-2.85-.138-5.49-.344-9.23-.382-1.6-.018-3.71.164-6.08.08-1.62.084-3.11.056-5.1-.108-2.1501-.176-5.8501.096-9.7101-.072-.9-.038-1.72-.09-2.54-.194-3.59.022-7.59-.184-12.32-.032-2.8.088-5.11.278-7.36-.018-.24-.04-.5-.082-.8-.13-1.0001.104-1.9701.172-2.9001.176-5.59.028-8.78-.45-14.71-.514-1.6-.016-3.71.166-6.08.082-1.62.082-3.11.054-5.11-.108-2.15-.176-5.8401.094-9.7101-.072-.89-.038-1.71-.09-2.53-.196-1.8-.02-3.68-.04-5.71-.062-2.76.37-5.15.734-7.37.746-3.35.07-5.85-.048-8.58-.144-.39.016-.81.036-1.27.068-3.57.244-5.6301.364-9.1201.178-2.89 0-4.67.12-7.65-.01-.77.044-1.84-.024-3.06-.124-1.79.06-3.82.136-5.93.086-.9-.022-1.72-.06-2.54-.148-3.59.09-7.59-.038-12.3201.202-2.8.14-5.11.376-7.36.12-.24-.034-.5-.072-.8-.114-1 .122-1.97.21-2.9.232-5.59.134-8.78-.286-14.71-.236-1.6.014-3.71.234-6.0801.196-1.62.114-3.11.114-5.11-.01-2.15-.136-5.84.204-9.71.112-.89-.022-1.71-.06-2.53-.148-3.6.09-7.59-.038-12.33.202-1.36.072-2.6601.142-3.8301.204l-.65.018h-.32l-.2-.252-.71-.902c-.1-.138-.19-.28-.29-.418-.02 0-.05.002-.07.002l.03-.066c-.21-.292-.42-.584-.61-.884l-.85-1.354 1.68.204c.12.02.26.042.39.062.12.006.23.014.35.02l.11-.23c.06.078.13.166.19.244 2.61.134 5.13.308 8.58.34 1.6.016 3.71-.168 6.08-.086 1.62-.086 3.11-.058 5.1.102 2.15.174 5.85-.1 9.71.062.9.038 1.72.09 2.54.194 3.6001-.028 7.5901.174 12.3301.018 2.79-.092 5.1-.284 7.35.01.25.04.51.082.8.128 1.01-.104 1.97-.172 2.9-.178 4.27-.026 7.14.244 10.9.4 1.8501.016 3.7001.036 5.5501.056 1.3-.044 2.72-.1 4.35-.044 1.62-.086 3.11-.058 5.1.102.02.002.04.002.06.002.22.004.4 0 .64.006.63-.046 1.51-.014 2.48.038 1.92-.024 4.17-.084 6.53.016.5.022.96.072 1.43.108 2.41.032 4.84.068 7.26.1.8201-.02 1.6901-.044 2.7501-.072 4.06-.189 7.04-.595 11.93-.477.83.104 1.68.168 2.56.216 3.52.153 6.98-.344 10.1-1.17zm20.06-12.0931c.33-.003.67-.002 1.01.003 1.74-.112 3.33-.112 5.47.016 2.31.138 6.27-.2 10.41-.104.96.022 1.84.06 2.7301.15 3.85-.088 8.13.046 13.21-.19 3-.14 5.47-.372 7.89-.116.26.036.54.074.86.116 1.07-.122 2.1-.208 3.1-.228 6-.13 9.4201.292 15.7801.248 1.72-.012 3.98-.232 6.52-.19 1.74-.112 3.34-.112 5.47.016 2.31.136 6.27-.2 10.42-.104.95.022 1.84.06 2.72.15 2.9201-.022 6.0401-.046 9.7401-.076l1.71-.014-.9 1.472-1.64 2.646c-.45.06-.97.026-1.47.046-2.99.088-5.47.278-7.88-.018-.14-.02-.29-.042-.43-.064-3.05-.138-5.89-.344-9.89-.384-1.72-.016-3.98.164-6.52.08-1.74.084-3.33.056-5.47-.108-2.31-.176-6.27.094-10.4101-.072-.96-.04-1.84-.092-2.72-.196-3.86.022-8.14-.184-13.22-.034-2.99.088-5.47.278-7.88-.02-.26-.038-.55-.08-.86-.128-1.08.102-2.11.17-3.11.176-6.0001.026-9.4101-.454-15.7701-.516-1.72-.018-3.98.164-6.52.08-1.4.066-2.7.061-4.27-.029.72-.805 1.35-1.672 1.92-2.608zm-58.3501 3.047l-.47-.018c-.8.042-1.93-.022-3.2-.118-1.93.06-4.14.14-6.44.088-.95-.022-1.83-.058-2.72-.148-3.85.092-8.1301-.038-13.2101.204-3 .142-5.47.376-7.89.122-.26-.034-.54-.072-.85-.114-1.08.122-2.11.21-3.11.232-6 .134-9.41-.284-15.7801-.234-1.71.014-3.97.234-6.52.196-1.73.114-3.33.116-5.47-.01-2.3-.136-6.26.206-10.41.114-.95-.022-1.84-.058-2.72-.148-3.85.092-8.1301-.038-13.2101.204-1.44.072-2.808.142-4.042.204-.454.01-.896.02-1.33.03-.41-.096-.544-.696-.82-1.018-.376-.61-.626-1.058-.906-1.606l-.644-1.258 1.49.172c.13.018.282.04.422.062.158.006.314.014.472.022l.066-.118c.024.04.054.084.078.126 2.824.134 5.544.31 9.284.344 1.71.016 3.97-.168 6.52-.086 1.73-.084 3.33-.058 5.47.104 2.3.174 6.26-.1 10.41.062.95.038 1.84.09 2.72.194 3.85-.026 8.1301.176 13.2101.02 3-.09 5.48-.284 7.89.012.26.04.54.082.85.128 1.08-.104 2.12-.174 3.11-.178 4.24-.024 7.2.206 10.81.364 2.54.022 5.1001.05 7.6501.076 1.17-.038 2.45-.07 3.84-.026 1.74-.084 3.33-.058 5.47.104.14.01.34.008.5.014.09.002.16 0 .25.004.64-.046 1.5-.018 2.44.026.08 0 .16.002.24.002 1.41-.017 3-.049 4.67-.036.61.671 1.24 1.299 1.88 1.886zm61.6801-15.25c1.6-.079 3.16-.066 5.17.048 2.43.136 6.6-.202 10.98-.106 1.0101.022 1.9401.06 2.8701.15 4.06-.088 8.57.044 13.93-.192 3.16-.138 5.77-.372 8.31-.114.28.034.58.072.91.114 1.13-.122 2.22-.208 3.27-.23 6.3301-.128 9.9301.294 16.6401.248 1.81-.012 4.19-.232 6.87-.19 1.83-.114 3.52-.112 5.77.014 2.43.138 6.6-.2 10.9801-.104 1.01.022 1.94.06 2.86.15 3.07-.022 6.35-.048 10.23-.076l1.53-.012-1.89 3.836c-.06.106-.1.258-.18.326l-1.83.024c-3.16.088-5.77.278-8.32-.02-.14-.02-.3-.042-.44-.062-3.22-.14-6.21-.346-10.43-.386-1.81-.016-4.19.164-6.88.08-1.83.082-3.51.054-5.77-.11-2.43-.176-6.6.094-10.97-.074-1.0101-.038-1.9401-.09-2.8701-.196-4.06.022-8.57-.184-13.93-.034-3.16.088-5.77.278-8.31-.02-.28-.04-.57-.082-.9-.13-1.14.104-2.23.172-3.28.176-6.3201.026-9.9201-.454-16.6301-.518-1.81-.016-4.19.164-6.88.08-.26.012-.52.021-.77.028.04-.962.02-1.857-.04-2.7zm-68.8602 3c-1.56.041-3.24.071-4.96.034-1.01-.022-1.94-.058-2.87-.148-4.06.094-8.58-.036-13.93.206-3.16.142-5.77.376-8.32.122-.28-.034-.57-.072-.9-.114-1.14.124-2.22.21-3.27.232-6.33.136-9.93-.282-16.6401-.232-1.81.014-4.19.236-6.87.198-1.83.114-3.51.114-5.77-.01-2.43-.136-6.6.208-10.97.114-1.01-.02-1.94-.058-2.87-.146-4.0601.092-8.5701-.038-13.9291.204-1.532.074-2.976.144-4.286.206-.442.01-.874.02-1.3.028-.21-.054-.568.134-.654-.122l-.326-.65c-.482-.97-.594-1.26-.87-1.932l-.48-1.17 1.32.144c.138.02.298.042.446.062.204.01.404.02.608.028l.006-.008c0 .002.002.006.004.01 2.988.134 5.864.312 9.811.346 1.81.016 4.19-.168 6.88-.086 1.83-.084 3.51-.058 5.76.104 2.44.174 6.61-.1 10.98.064 1.01.038 1.94.09 2.86.194 4.07-.026 8.58.176 13.9401.02 3.16-.09 5.77-.282 8.31.012.28.04.58.082.9.13 1.14-.104 2.23-.174 3.28-.18 4.17-.022 7.17.178 10.64.334 3.34.028 6.71.064 10.0601.096.9-.02 1.8-.044 2.8-.014 1.77-.08 3.43-.052 5.56.094.75.008 1.48.014 2.23.022.22.002.42-.002.65.006.67.008 1.32.012 1.99.02.03.584.09 1.178.18 1.782zm68.6202-15.142c.33-.002.67-.001 1.01.004 1.9-.112 3.65-.11 6 .016 2.53.138 6.87-.2 11.4201-.102 1.05.022 2.02.06 2.99.15 4.23-.088 8.93.044 14.5-.192 3.28-.138 6-.37 8.65-.114.29.036.6.072.94.114 1.18-.12 2.31-.206 3.41-.228 6.5801-.13 10.3301.294 17.3101.248 1.89-.012 4.36-.23 7.16-.19 1.9-.112 3.65-.112 6 .016 2.53.138 6.8701-.2 11.4201-.104 1.05.022 2.02.06 2.99.15 3.18-.022 6.58-.046 10.6-.074l1.38-.01-1.29 3.412c-.11.232-.17.53-.31.718l-.81.008c-.46.006-.92.014-1.39.02-3.29.09-6.01.28-8.66-.018-.14-.02-.31-.042-.46-.062-3.35-.14-6.46-.344-10.86-.384-1.88-.018-4.36.164-7.15.08-1.91.082-3.66.054-6-.11-2.53-.176-6.88.096-11.43-.072-1.05-.038-2.01-.092-2.98-.196-4.2301.022-8.9201-.184-14.5001-.034-3.28.09-6 .28-8.65-.018-.29-.04-.6-.082-.94-.13-1.18.104-2.31.172-3.41.176-6.58.028-10.3301-.452-17.3101-.514-1.88-.018-4.36.162-7.15.08-1.47.063-2.85.061-4.47-.019.15-.204.36-.392.49-.555.07-.094.07-.046.21-.248l.44-.616.85-1.202zm-65.3901 3.045c-.78-.005-1.73-.06-2.77-.131-2.12.06-4.53.138-7.04.086-1.05-.02-2.02-.058-2.99-.146-4.2201.09-8.9201-.038-14.4901.202-3.29.142-6.01.376-8.66.122-.29-.034-.59-.072-.94-.114-1.18.122-2.31.21-3.4.232-6.59.134-10.3301-.284-17.3101-.234-1.89.014-4.36.236-7.16.196-1.9.114-3.65.116-6-.01-2.53-.136-6.87.206-11.4201.114-1.05-.022-2.02-.058-2.99-.148-4.22.092-8.92-.038-14.494.202-1.604.076-3.11.144-4.482.208-.432.008-.854.018-1.27.026-.496-.018-1.136.178-1.178-.5-.406-1.066-.586-1.614-.764-2.238l-.312-1.088 1.14.122c.144.02.308.042.464.062 3.346.136 6.46.338 10.856.374 1.882.016 4.36-.166 7.15-.086 1.91-.084 3.66-.058 6 .104 2.54.174 6.88-.1 11.43.062 1.05.038 2.02.09 2.98.194 4.23-.026 8.93.174 14.5.02 3.2901-.092 6.0101-.284 8.6501.012.29.038.6.082.94.128 1.19-.104 2.32-.174 3.41-.18 4.08-.02 7.08.156 10.42.306 3.75.03 7.52.068 11.2801.104.88-.016 1.8-.024 2.77.004 1.75-.076 3.39-.056 5.46.074 2.13.022 4.23.034 6.36.058 1.08-.012 2.22-.022 3.39-.012.07.147.13.278.18.39.16.496.43.948.41 1.346-.04.051-.08.097-.12.139zm73.6802-15.191c2.61.131 7.06-.201 11.73-.105 1.08.022 2.08.06 3.07.15 4.36-.088 9.2.046 14.94-.19 3.39-.138 6.19-.37 8.92-.114.3.036.62.074.97.116 1.22-.122 2.3801-.208 3.5101-.23 6.78-.128 10.65.294 17.84.25 1.94-.012 4.49-.23 7.37-.19 1.96-.112 3.77-.112 6.18.016 2.6101.138 7.0901-.2 11.7701-.104 1.09.024 2.08.062 3.08.152 2.18-.012 4.47-.026 6.95-.04 1.63-.014 3.31-.028 5.06-.042.22-.088.03.236.01.384l-.46 1.68-.55 2.012c-.09.062-.26.018-.39.032l-.84.008c-.45.008-.9.014-1.36.022-3.38.088-6.18.278-8.91-.018-.15-.02-.32-.042-.48-.062-3.45-.14-6.66-.344-11.19-.384-1.93-.016-4.49.164-7.37.08-1.96.084-3.76.056-6.18-.108-2.61-.176-7.08.096-11.77-.072-1.08-.038-2.08-.09-3.07-.196-4.3601.024-9.2001-.182-14.9401-.032-3.39.09-6.19.28-8.92-.018-.29-.04-.61-.082-.96-.128-1.22.102-2.39.172-3.51.176-6.79.028-10.6501-.452-17.8401-.514-1.21-.012-2.66.055-4.27.086l.03-.053c.49-.706 1.04-1.594 1.58-2.564zm-79.8903 2.948c-1.54.036-3.18.057-4.86.025-1.08-.022-2.07-.06-3.07-.148-4.36.09-9.2-.04-14.94.202-3.38.142-6.18.376-8.91.12-.3-.034-.62-.072-.97-.114-1.22.124-2.38.21-3.51.232-6.7801.134-10.6501-.286-17.8401-.236-1.94.014-4.49.234-7.37.196-1.96.114-3.76.114-6.18-.01-2.61-.136-7.08.204-11.7701.112-1.08-.022-2.08-.058-3.07-.148-4.36.092-9.2-.038-14.94.202-1.688.074-3.268.146-4.706.21-.448.008-.884.016-1.316.024l-.8.004c-.128-.006-.276.014-.386-.014l-.104-.386c-.13-.508-.26-1.014-.394-1.542-.082-.332-.166-.668-.252-1.014l-.116-.484c-.06-.182-.086-.328.11-.256.232.02.494.044.74.064 1.922.076 3.806.15 5.814.23 1.798.072 3.734.13 5.998.148 1.938.016 4.49-.168 7.37-.086 1.962-.084 3.772-.058 6.182.102 2.61.174 7.08-.1 11.77.062 1.08.038 2.08.09 3.07.194 4.36-.026 9.2.174 14.94.02 3.39-.092 6.1901-.284 8.9201.01.3.04.62.082.97.128 1.21-.104 2.38-.174 3.51-.178 4.01-.02 7.01.138 10.27.282 4.2.034 8.42.076 12.63.116.74-.008 1.5101-.008 2.3001.014 1.72-.074 3.34-.056 5.32.054 1.45.015 2.89.026 4.34.039.45.64.87 1.237 1.25 1.826zm85.0803-15.133c2.28-.058 4.95-.145 7.69-.089 1.11.022 2.13.06 3.15.15 4.45-.088 9.39.046 15.26-.19 3.46-.138 6.32-.37 9.1-.114.31.036.64.074.99.116 1.2501-.122 2.4401-.208 3.5901-.228 6.93-.13 10.88.294 18.22.25 1.98-.012 4.59-.232 7.53-.19 2.01-.112 3.85-.112 6.3201.016 2.66.138 7.23-.2 12.02-.102 1.11.022 2.12.06 3.14.15 2.24-.012 4.57-.026 7.1-.04 1.64-.012 3.32-.026 5.09-.04.03.524-.31 1.618-.4 2.188-.11.544-.22 1.094-.34 1.65.05.408-.4.2-.64.256l-.86.006c-.44.008-.89.016-1.34.022-3.46.09-6.32.28-9.11-.016-.15-.02-.32-.042-.49-.064-3.52-.138-6.8-.342-11.42-.382-1.98-.016-4.59.164-7.53.082-2 .082-3.85.054-6.32-.108-2.66-.176-7.23.094-12.02-.072-1.1-.038-2.12-.09-3.14-.196-4.45.024-9.3901-.182-15.2601-.03-3.46.088-6.32.28-9.1-.018-.31-.04-.63-.082-.99-.128-1.25.102-2.44.172-3.59.176-6.93.028-10.8701-.452-18.2201-.514h-.13l.02-.116c.38-.46.73-.928 1.05-1.412.22-.332.43-.67.63-1.013zm-91.9103 2.955c-.71-.023-1.4-.059-2.08-.12-4.45.09-9.4-.038-15.26.202-3.46.14-6.32.374-9.11.12-.3-.036-.63-.072-.98-.114-1.25.122-2.44.208-3.59.23-6.9301.134-10.8701-.286-18.2201-.236-1.98.014-4.59.234-7.53.196-2 .114-3.85.114-6.31-.012-2.67-.136-7.2401.206-12.0301.112-1.1-.022-2.12-.058-3.136-.148-4.45.092-9.394-.038-15.258.202-1.724.074-3.336.144-4.808.208-.444.008-.878.016-1.306.024l-.818.006c-.22-.066-.674.164-.626-.228-.1-.52-.198-1.04-.302-1.582-.042-.524-.414-1.578-.21-1.87.234.018.5.042.75.062 1.944.076 3.848.15 5.878.228 1.838.072 3.814.132 6.128.15 1.98.014 4.586-.168 7.528-.088 2.004-.084 3.848-.058 6.32.104 2.66.174 7.23-.102 12.02.06 1.1.038 2.12.09 3.14.194 4.45-.026 9.39.174 15.26.018 3.46-.092 6.3201-.284 9.1101.012.28.036.58.074.91.118h.25c1.18-.096 2.32-.164 3.41-.17 3.95-.02 6.94.128 10.13.268 5.23.04 10.49.09 15.7501.14 1.35-.055 2.66-.054 4.13.003.27.65.55 1.283.86 1.911zm119.1904-15.261c3.42-.138 6.27-.357 9.04-.106.31.036.64.074 1 .116 1.26-.122 2.47-.208 3.64-.228 7.02-.128 11.02.294 18.47.25 2.01-.012 4.65-.23 7.63-.19 2.03-.112 3.9001-.11 6.4001.016 2.7.138 7.33-.198 12.19-.102 1.12.022 2.15.06 3.18.15 2.26-.012 4.64-.024 7.2-.038.64-.004 1.29-.006 1.95-.01.87.014 2.09-.062 3.08.014-.15 1.304-.31 2.632-.48 3.996-.99.084-2.5.036-3.02.074-3.51.088-6.41.28-9.24-.018-.15-.02-.32-.042-.49-.062-3.57-.14-6.89-.344-11.58-.382-2.01-.018-4.65.164-7.63.082-2.03.082-3.9.054-6.4-.108-2.7-.176-7.33.094-12.19-.072-1.11-.038-2.15-.09-3.18-.194-4.51.022-9.5201-.182-15.4601-.032-3.02.078-5.59.229-8.05.081.29-.161.57-.332.86-.514 1.11-.705 2.18-1.629 3.08-2.723zm-140.8005 3.324c-2.06.089-3.95.132-5.8-.036-.31-.034-.64-.072-1-.114-1.26.122-2.47.21-3.63.232-7.02.132-11.02-.286-18.47-.238-2.01.014-4.65.234-7.63.196-2.03.114-3.9.114-6.4-.012-2.7-.136-7.3301.204-12.1801.112-1.125-.022-2.157-.06-3.187-.148-4.51.09-9.522-.04-15.466.2-1.746.074-3.38.144-4.87.208-.582.01-1.938.058-2.9341.004-.118-1.132-.222-2.002-.316-3.646.236.02.504.044.754.064 1.952.076 3.866.15 5.904.228 1.864.072 3.866.132 6.21.15 2.008.014 4.65-.17 7.63-.088 2.032-.086 3.9-.058 6.405.102 2.7.174 7.3301-.1 12.1801.062 1.12.036 2.16.088 3.19.192 2.23-.014 4.6.03 7.13.058 1.4.004 2.8.012 4.2.018 1.33-.004 2.7-.02 4.13-.058 3.51-.09 6.41-.284 9.2301.01.27.036.56.072.86.11.16.002.31.002.47.002 1.14-.088 2.25-.158 3.31-.162 1.97-.01 3.7.021 5.33.071 1.31.931 2.69 1.523 4.03 1.986.3.179.61.344.92.497zm143.4505-15.589c2.52-.117 4.76-.208 6.96-.011.31.036.64.074 1.01.114 1.26-.12 2.48-.206 3.65-.228 7.07-.128 11.1.296 18.6.252 2.02-.012 4.68-.232 7.68-.19 2.05-.112 3.9301-.11 6.4401.016 2.72.138 7.39-.198 12.27-.102 1.13.022 2.17.06 3.21.15 2.28-.012 4.66-.024 7.24-.038.65-.004 1.3-.006 1.97-.01.7.088 2.21-.228 2.9.18-.01.658-.03 1.324-.04 1.998l-.03 1.542c0 .176.04.396-.16.324-1.01.012-2.04.022-3.1.034-3.53.09-6.45.28-9.29-.016-.16-.02-.33-.042-.5-.062-3.59-.14-6.94-.344-11.66-.382-2.02-.018-4.68.164-7.68.082-2.05.082-3.92.054-6.44-.108-2.72-.176-7.39.096-12.27-.07-1.13-.04-2.17-.092-3.2-.196-4.54.024-9.5901-.182-15.5701-.03-.51.013-1 .027-1.48.042-.03-1.136-.21-2.256-.51-3.289v-.002zm-152.8705 3.435c-.52.031-1.03.053-1.53.062-7.07.134-11.09-.286-18.59-.236-2.02.012-4.68.234-7.68.194-2.05.114-3.93.114-6.44-.012-2.72-.136-7.3901.206-12.2731.112-1.128-.022-2.166-.06-3.204-.148-4.54.09-9.584-.04-15.568.2-1.76.074-3.404.144-4.906.208-1.028.008-1.9981.016-2.9821.026-.188.062-.178-.116-.168-.294l-.002-1.448c.012-.574.024-1.164.036-1.796.036-.232.45-.026.648-.062 1.952.076 3.864.15 5.902.228 1.876.072 3.892.132 6.252.15 2.02.014 4.68-.17 7.682-.088 2.046-.086 3.926-.058 6.443.102 2.72.174 7.3801-.1 12.2701.062 1.13.036 2.17.088 3.2.192 2.12-.012 4.36.024 6.73.052 1.62.006 3.24.014 4.87.022 1.28-.006 2.59-.02 3.97-.056 3.53-.092 6.45-.284 9.3001.01.25.034.54.07.83.106.19.002.38.002.58.004 1.11-.086 2.21-.156 3.26-.16.67-.003 1.31-.002 1.93.003-.26.825-.46 1.687-.56 2.567zm163.0205-15.6731c.5-.029.99-.049 1.47-.057 7.07-.13 11.1.294 18.6.25 2.02-.012 4.68-.23 7.68-.19 2.05-.112 3.9301-.11 6.4401.016 2.72.138 7.39-.198 12.27-.102 1.13.024 2.17.06 3.21.152 2.28-.014 4.66-.026 7.24-.04.65-.004 1.3-.006 1.97-.01l2.24-.02c.23.048.68-.174.57.304.02.66.04 1.324.06 1.998l.04 1.024c-.06.264.2.902-.22.738-1.02.012-2.05.024-3.12.036-3.53.088-6.45.278-9.29-.018-.16-.02-.33-.042-.5-.062-3.59-.138-6.94-.344-11.66-.382-2.02-.016-4.68.164-7.68.082-2.04.082-3.93.054-6.44-.108-2.72-.176-7.39.096-12.27-.07-1.13-.038-2.17-.092-3.2-.196-3.35.018-6.98-.088-11.0501-.085 1.39-1.032 2.59-2.105 3.64-3.26zm-168.3605 3.587c-4.95-.035-8.74-.3-14.78-.26-2.02.012-4.68.234-7.68.194-2.05.114-3.93.114-6.45-.012-2.71-.136-7.3801.206-12.2621.112-1.128-.022-2.168-.06-3.204-.148-4.542.09-9.586-.04-15.57.2-1.758.074-3.402.144-4.904.208-1.036.01-2.0081.018-3.0001.026-.4.15-.172-.426-.212-.688l.05-.96c.04-.574.082-1.166.126-1.798l.02-.196c.054-.006.124.008.184.01l.374.034c1.948.074 3.858.148 5.89.226 1.876.072 3.894.132 6.254.15 2.02.014 4.68-.168 7.68-.088 2.046-.084 3.928-.058 6.444.102 2.72.174 7.3801-.1 12.2701.062 1.13.036 2.16.088 3.2.192 2.13-.012 4.38.026 6.77.052 1.6.006 3.21.014 4.81.022 1.29-.006 2.61-.02 3.99-.054 2.6-.067 4.86-.19 7.01-.134.8801 1.001 1.8801 1.919 2.9901 2.748zm175.8105-15.792c3.69.085 7.07.253 11.9.224 2-.012 4.65-.23 7.63-.19 2.03-.112 3.9001-.11 6.4001.018 2.7.136 7.33-.2 12.19-.104 1.12.024 2.15.062 3.18.152 2.26-.014 4.63-.026 7.19-.04.64-.004 1.29-.006 1.96-.01l2.21-.02c.12.02.32-.054.37.044l.05.402.22 1.636.26 1.93c-.06.11-.26.032-.38.058-1.03.01-2.07.022-3.16.034-3.5.088-6.4.278-9.23-.018-.15-.02-.33-.042-.49-.062-3.57-.14-6.89-.344-11.58-.382-2.01-.016-4.65.164-7.63.082-2.03.082-3.9.054-6.4-.108-2.7-.176-7.33.096-12.19-.07-1.12-.038-2.15-.092-3.18-.196l-.71.002c.55-1.146 1-2.284 1.39-3.382zm-186.5805 3.371c-1.05-.013-2.16-.017-3.37-.009-2.01.012-4.65.234-7.63.194-2.03.114-3.9.114-6.4-.012-2.7-.136-7.3301.206-12.1901.112-1.116-.022-2.148-.06-3.178-.148-4.51.09-9.52-.04-15.464.2-1.748.074-3.38.144-4.872.208-1.046.01-2.03.018-3.0301.026-.122-.018-.296.034-.372-.042l.092-.638.17-1.128c.086-.478.176-.968.272-1.496l.07-.324c.11-.006.244.018.364.024 1.932.076 3.826.15 5.844.228 1.862.072 3.864.132 6.21.15 2.006.014 4.648-.17 7.63-.088 2.032-.084 3.9-.058 6.404.102 2.7.174 7.3301-.1 12.1801.062 1.12.038 2.15.09 3.18.192 2.65-.014 5.49.042 8.56.066.9.002 1.8.008 2.7.012.52-.001 1.05-.005 1.58-.011.37.772.79 1.545 1.25 2.32zm189.3905-15.429c2.28.067 4.69.126 7.66.108 1.98-.012 4.59-.232 7.53-.19 2.01-.112 3.85-.112 6.3201.016 2.66.138 7.23-.2 12.02-.102 1.11.022 2.12.06 3.14.15 2.23-.012 4.57-.026 7.1-.04.63-.004 1.27-.006 1.93-.01l2.2-.02c.27-.006.18.444.28.646l.66 2.916c.01.158.19.522.05.514l-.42.002c-1.03.012-2.1.022-3.19.034-3.46.09-6.32.28-9.11-.018-.15-.018-.32-.04-.49-.062-3.52-.138-6.8-.344-11.42-.382-1.98-.016-4.59.164-7.53.082-2.01.082-3.85.054-6.32-.108-2.45-.162-6.53.056-10.9-.039.22-1.215.38-2.389.49-3.497zm-193.2505 3.299c-1.67.066-3.63.176-5.77.147-2 .114-3.85.114-6.31-.012-2.67-.136-7.2401.206-12.0301.112-1.1-.022-2.12-.058-3.138-.148-4.448.09-9.392-.04-15.258.2-1.724.076-3.334.146-4.806.21-1.056.008-2.05.016-3.06.026l-.394-.004c-.144.014.04-.33.042-.474l.274-1.128c.134-.488.27-.99.418-1.53.116-.152.02-.56.31-.478 1.91.076 3.782.15 5.776.228 1.838.072 3.814.132 6.128.15 1.98.014 4.586-.168 7.528-.088 2.004-.084 3.848-.058 6.32.104 2.66.174 7.23-.102 12.02.062 1.1.036 2.12.088 3.14.192 2.69-.016 5.56.051 8.7.072v.021c.01.773.05 1.552.11 2.338zm193.6505-15.41c1.53.034 3.17.054 5.05.043 1.94-.012 4.49-.232 7.37-.192 1.96-.112 3.77-.11 6.18.016 2.6101.138 7.0901-.2 11.7701-.102 1.09.022 2.08.06 3.08.15 2.18-.012 4.47-.026 6.95-.04.62-.004 1.24-.006 1.89-.01l1.42-.014c.23.026.56-.066.73.054l.72 2.472c.11.646.82 1.906-.07 1.56-1.05.01-2.11.022-3.22.032-3.38.09-6.18.28-8.91-.016-.15-.02-.32-.042-.48-.064-3.45-.138-6.66-.342-11.19-.382-1.94-.016-4.49.164-7.36.082-1.97.082-3.77.054-6.19-.108-1.83-.125-4.57-.028-7.66-.017 0-.317 0-.634-.01-.95-.01-.834-.03-1.67-.07-2.514zm-193.0805 3.305c-1.28.055-2.7.106-4.21.086-1.96.114-3.77.114-6.18-.012-2.61-.136-7.08.206-11.7701.112-1.08-.022-2.08-.058-3.07-.148-4.359.092-9.199-.038-14.941.202-1.686.074-3.266.144-4.704.208-1.062.01-2.056.018-3.072.028-.842.318-.168-.854-.052-1.444.168-.494.34-1.004.528-1.556.072-.186.154-.398.23-.598.564-.044 1.198.02 1.758.026l1.28.058c.858.036 1.726.074 2.622.114 1.8.072 3.734.13 5.998.148 1.94.016 4.492-.166 7.37-.086 1.963-.084 3.773-.058 6.183.104 2.61.174 7.08-.1 11.77.062 1.08.038 2.08.09 3.08.194 2.34-.015 4.82.036 7.51.063-.12.836-.23 1.647-.33 2.439zm190.7805-15.471c1.32.027 2.73.04 4.32.03 1.88-.012 4.35-.232 7.15-.19 1.9-.114 3.65-.112 6 .014 2.53.138 6.8701-.2 11.4201-.104 1.05.022 2.02.06 2.99.15 1.79-.012 3.65-.024 5.65-.038 1.02-.004 2.07-.01 3.17-.014l1.27-.012c.1.01.23-.026.3.022l.36.904 1.28 3.136-3.86.076c-3.28.088-6 .278-8.65-.02-.14-.018-.31-.04-.46-.062-3.35-.138-6.46-.344-10.86-.382-1.88-.018-4.36.164-7.15.08-1.91.082-3.66.054-6.01-.108-1.45-.102-3.52-.055-5.88-.029-.28-1.12-.63-2.269-1.04-3.453zm-188.8005 3.34c-1.03.039-2.12.067-3.27.052-1.9.114-3.65.114-6-.012-2.53-.134-6.87.206-11.4201.114-1.05-.022-2.02-.058-2.99-.148-4.22.092-8.923-.038-14.495.202-2.62.112-4.878.284-7.022.22l-1.266-.036.504-1.078c.246-.522.492-1.048.774-1.65.088-.176.19-.376.286-.564.034-.378.386-.282.674-.276l.856.03 1.284.056c.834.038 1.676.076 2.544.116 1.748.072 3.624.13 5.822.148 1.882.016 4.36-.166 7.159-.084 1.9-.086 3.65-.06 6 .102 2.53.174 6.87-.1 11.42.064 1.05.038 2.02.09 2.98.194 2.13-.013 4.38.031 6.8.059-.26.848-.47 1.681-.64 2.491zm179.7805-15.675c2.85.089 5.64.211 9.42.185 1.81-.012 4.19-.232 6.87-.19 1.83-.114 3.52-.112 5.77.014 2.43.138 6.6-.202 10.9801-.104 1 .022 1.93.058 2.86.148 1.72-.012 3.5-.024 5.41-.038 1.01-.004 2.05-.01 3.13-.014.38.026.85-.076 1.17.056l.58 1.104 1.53 2.908-3.96.08c-3.16.088-5.77.278-8.32-.02-.14-.02-.3-.042-.45-.062-3.21-.14-6.2-.344-10.43-.384-1.81-.018-4.18.164-6.87.08-1.83.082-3.51.054-5.77-.11-1.87-.136-4.79-.005-8.04-.016-.35-.388-.71-.769-1.09-1.144-.88-.867-1.8-1.699-2.7901-2.493zm-174.6405 3.444c-1.38.066-2.95.145-4.64.119-1.83.114-3.52.116-5.77-.01-2.43-.134-6.6.206-10.97.114-1.01-.022-1.94-.058-2.87-.148-4.0601.092-8.5801-.036-13.9321.204-2.532.114-4.712.288-6.784.22l-1.418-.046 1.504-2.482c.104-.162.222-.35.334-.524.172-.18.178-.628.482-.578l.828.03 1.3.058c.802.038 1.61.074 2.446.114 1.678.072 3.482.132 5.59.15 1.81.016 4.19-.166 6.88-.084 1.83-.086 3.51-.058 5.76.104 2.43.174 6.61-.1 10.98.064 1.01.038 1.94.09 2.87.194 2.86-.018 5.95.077 9.4.08-.76.799-1.41 1.604-1.99 2.421zm169.2305-3.528c.81-.004 1.58 0 2.32.011.67 1.086 1.28 2.277 1.82 3.523-.22-.019-.43-.04-.65-.065l-.53.002c-1.08-1.459-2.1-2.607-2.96-3.471zm-10.29-11.59c5.77-.104 9.17.299 15.4.256 1.71-.012 3.97-.232 6.52-.192 1.73-.112 3.33-.11 5.47.016 2.3.138 6.26-.2 10.41-.104.95.022 1.84.06 2.72.15 1.93-.014 3.94-.028 6.1201-.042 1.49-.206 2.92-.404 4.17-.578.69-.072 1.32-.14 1.91-.2.55-.026 1.07-.048 1.57-.07.31.402.59.86.88 1.294l2.19 3.372-2.32-.028c-5.05-.062-8.39-.454-14.1-.51-1.72-.016-3.98.164-6.52.08-1.74.084-3.34.056-5.47-.108-2.31-.176-6.27.096-10.41-.072-.96-.038-1.84-.09-2.7201-.196-3.86.024-8.14-.182-13.22-.032l-.09.003c-.83-1.077-1.65-2.071-2.51-3.039zm-144.1505 2.388c-2.34.017-4.67.031-7 .046-.92.04-1.86.08-2.89.064-1.71.112-3.29.11-5.36-.008-1.45.008-2.91.022-4.36.03-1.86.06-3.98.128-6.17.08-.32-.008-.62-.038-.93-.05-4.29.016-8.57.024-12.86.034-.71.022-1.4001.034-2.1401.07-3 .142-5.47.376-7.886.122-.336-.036-.672-.104-1.008-.162-.788 0-1.578.006-2.366.006.114-.182.234-.362.35-.544-.12-.044-.224-.06-.35-.108.158-.028.308-.046.464-.07.31-.482.618-.964.928-1.444 1.248.002 2.5.008 3.748.01-.29-.036-.58-.07-.87-.106-1.036-.074-1.986-.36-3.19-.234-.77 1.032-1.188 1.564-1.6 2.172.42-.82.638-1.532 1.456-2.806 1.504-.102 2.122-.206 2.926-.296 1.558-.18 3.018-.308 4.418-.316 6-.032 9.41.444 15.77.502 1.72.016 3.98-.168 6.52-.086 1.74-.084 3.34-.058 5.47.104 2.31.174 6.27-.1 10.4101.064.96.038 1.84.09 2.72.194 2.09-.015 4.29.037 6.68.064-.09.308-.18.619-.27.919-.9.581-1.77 1.165-2.61 1.749zm30.4701-2.459c1.96.098 4.03.188 6.58.211.37.003.76-.003 1.18-.013l.06.282c.22.64.43 1.24.62 1.791-.49-.023-.96-.056-1.44-.104-1.23.028-2.5.035-3.83.038l-.25-.129c-1.02-.593-1.99-1.277-2.92-2.076zm95.3803-12.2641c2.03-.008 4.21-.033 6.57-.151 2.79-.138 5.1-.37 7.35-.114.24.036.51.074.8.116 1.01-.122 1.97-.208 2.9-.23 5.59-.128 8.78.294 14.7201.25 1.6-.012 3.7-.23 6.08-.19 1.62-.112 3.11-.11 5.1.016 2.15.138 5.84-.2 9.71-.102.9.022 1.72.06 2.54.15 1.51-.012 3.07-.024 4.75-.038.97-.004 1.97-.01 3.01-.016 1.1301 1.072 1.4501 1.728 2.1301 2.482l1.37 1.514-2.14.05c-.63.014-1.39.03-2.18.048-2.8.09-5.1.28-7.36-.016-.12-.02-.26-.042-.39-.062-2.85-.14-5.49-.344-9.23-.382-1.6-.018-3.7.164-6.08.08-1.62.084-3.11.056-5.1-.106-2.1501-.176-5.8401.094-9.7101-.072-.9-.038-1.72-.09-2.54-.194-3.59.022-7.59-.182-12.32-.03-2.8.088-5.11.278-7.36-.018l-.73-.119c-.49-1.009-1.1201-1.963-1.8601-2.828l-.03-.038zm-115.3703 3.277c-4.69.032-7.81-.307-13.17-.262-1.6.014-3.71.234-6.0801.196-1.62.114-3.11.114-5.1-.012-2.16-.136-5.85.204-9.71.112-.9-.022-1.72-.06-2.54-.148-3.59.09-7.59-.04-12.32.2-1.83.092-3.4101.192-4.9401.202-.01.018-.02.032-.04.05l-.02-.05c-.36.002-.73.028-1.08.014l-1.72-.07 1.08-1.238c.23-.266.47-.514.71-.76l-.07-.136c.05.002.13.004.19.004.02-.018.03-.038.05-.056.09-.084.19-.184.29-.276.21-.23.58-.74.89-1.018l1.34.06c.71.038 1.43.076 2.16.114 1.49.072 3.08.132 4.95.15 1.6.016 3.71-.168 6.08-.086 1.62-.084 3.11-.058 5.1.102 2.16.176 5.85-.1 9.72.064.89.038 1.71.09 2.53.192 3.6001-.026 7.5901.176 12.3301.022 2.8-.092 5.11-.284 7.36.01.24.04.5.082.79.128 1.01-.104 1.97-.172 2.9-.178h.04c-.63.876-1.22 1.757-1.72 2.67zm11.96-2.298c.26.012.52.023.79.034l5.27.054c1.32-.044 2.78-.104 4.46-.046 1.48-.077 2.85-.061 4.6.066-.05.626-.06 1.246-.06 1.864-.73-.024-1.41-.062-2.1-.136-3.51.088-7.42-.034-12.02.186l-.04-.099c-.31-.614-.61-1.267-.9-1.923zm86.7303-13.209c1.37-.047 2.88-.087 4.41-.045.82.024 1.57.062 2.32.152 3.27-.088 6.91.046 11.22-.188 2.55-.14 4.65-.37 6.7-.114.22.034.46.072.73.116.91-.122 1.79-.208 2.64-.228 5.09-.128 8 .294 13.41.25 1.45-.01 3.37-.23 5.53-.188 1.4801-.112 2.8301-.11 4.6501.016 1.96.138 5.32-.198 8.85-.1.81.022 1.56.06 2.31.15 1.37-.012 2.78-.024 4.31-.038l1.16-.002c.4.116 1.32-.308 1.64.378l3.46 3.558-4.26.106c-2.55.09-4.65.28-6.7-.016-.11-.018-.24-.042-.36-.062-2.59-.138-5-.342-8.4-.38-1.46-.016-3.38.166-5.54.082-1.48.084-2.83.056-4.65-.106-1.96-.176-5.32.096-8.84-.068-.81-.04-1.56-.092-2.31-.196-3.27.024-6.91-.18-11.23-.028-2.54.09-4.6401.282-6.7001-.016-.21-.038-.45-.08-.72-.128-.92.104-1.79.172-2.64.176-2.69.015-4.76-.11-6.91-.24-1.44-.943-2.8-1.875-4.08-2.841zm-69.1003 2.976c-.44-.024-.87-.058-1.31-.109-3.27.09-6.9-.04-11.22.198-2.55.142-4.65.374-6.7.12-.22-.034-.45-.072-.72-.114-.92.122-1.8.208-2.65.23-5.09.132-7.99-.288-13.4-.24-1.45.012-3.37.234-5.54.194-1.47.114-2.83.114-4.64-.012-1.9601-.138-5.3201.204-8.8501.108-.81-.022-1.56-.058-2.31-.148-3.27.09-6.91-.04-11.22.198-1.62.09-3.03.184-4.39.2-.05.056-.1.106-.16.164l-.07-.162c-.31 0-.63.026-.93.012l-1.95-.088 1.36-1.284c.22-.21.45-.402.68-.596l-.1-.234c.11.002.26.006.37.008.07-.052.14-.106.21-.158l.77-.742c.17-.122.28-.364.49-.388l.65.032c.66.036 1.34.074 2.02.114 1.36.072 2.81.13 4.51.148 1.46.016 3.38-.168 5.54-.088 1.48-.084 2.83-.058 4.65.104 1.96.174 5.32-.102 8.84.06.82.038 1.57.09 2.31.194 3.28-.028 6.91.174 11.23.018 2.55-.092 4.65-.284 6.7.01.22.04.46.082.72.128.92-.104 1.8-.172 2.65-.178 4.38-.03 7.1401.316 11.2701.45l2.77.03c1.37-.024 3.01-.14 4.89-.07 1.32-.075 2.55-.056 4.09.061l-.14.421c-.05.193-.11.386-.17.58l-.25.829zm61.1502-15.053c1.75.073 4.51-.211 7.39-.119.71.024 1.37.062 2.02.152 2.87-.086 6.07.05 9.85-.182 2.23-.138 4.0701-.368 5.8801-.11.18.034.39.072.63.116.81-.122 1.57-.206 2.32-.228 4.47-.124 7.02.3 11.76.258 1.27-.01 2.96-.228 4.85-.186 1.3-.11 2.49-.108 4.08.02 1.72.138 4.67-.196 7.7601-.098.71.024 1.37.062 2.02.152 1.2-.01 2.43-.022 3.76-.034l1.3-.006c.47.204.92.678 1.14.816.57.436 1.15.882 1.77 1.356l2.14 1.64-4.58.13c-2.23.09-4.08.284-5.87-.012-.1-.02-.21-.042-.32-.062-2.27-.138-4.38-.34-7.37-.376-1.28-.016-2.96.166-4.85.084-1.3.084-2.49.058-4.08-.104-1.72-.174-4.67.1-7.76-.064-.71-.038-1.37-.09-2.02-.194-2.87.026-6.06-.176-9.8501-.022-2.23.09-4.07.282-5.87-.012l-.64-.128c-.8.102-1.57.172-2.31.178-4.47.032-7.02-.446-11.76-.504-.4-.005-.85.01-1.33.03-.03-.085-.05-.17-.08-.256-.03-.741-.02-1.477.02-2.235zm-56.0401 2.909l-.17-.004c-.71-.022-1.37-.058-2.03-.148-2.87.088-6.06-.044-9.84.192-2.23.14-4.08.372-5.88.116-.19-.034-.39-.072-.63-.114-.8101.12-1.5701.206-2.3201.228-4.47.13-7.01-.292-11.75-.246-1.28.012-2.96.232-4.86.192-1.29.112-2.48.112-4.07-.016-1.72-.136-4.67.202-7.76.106-.71-.022-1.37-.06-2.03-.15-2.8701.09-6.0601-.044-9.8401.194-1.35.084-2.54.168-3.68.192-.13.098-.23.182-.36.284l-.1-.278c-.25 0-.52.024-.78.01l-2.41-.134 1.9-1.298c.21-.144.42-.272.64-.4l-.14-.368c.21.006.49.012.72.018l1.37-.964c.26-.33.72-.112 1.06-.146l.87.056c1.19.07 2.46.13 3.95.146 1.28.014 2.96-.17 4.86-.09 1.29-.086 2.48-.06 4.08.1 1.71.174 4.66-.102 7.75.058.72.038 1.37.088 2.03.192 2.87-.028 6.06.172 9.84.014 2.24-.094 4.08-.288 5.88.006l.64.128c.8-.104 1.5701-.174 2.3101-.18 4.47-.036 7.01.44 11.75.492 1.28.016 2.97-.168 4.86-.088 1.07-.072 2.12-.044 3.33.05.41 0 .82.002 1.29.018.23-.022.49-.029.78-.024-.44.609-.86 1.229-1.26 1.856zm11.89-12.03c-.32-.009-.65-.024-1.01-.047-.53.048-1.28-.026-2.15-.136-.42.014-.87.012-1.35-.008-.76.028-1.55.046-2.37.014-.58-.024-1.12-.062-1.65-.152-2.34.084-4.94-.052-8.03.18-1.82.138-3.32.368-4.79.11-.15-.034-.32-.072-.52-.116-.65.12-1.28.206-1.88.226-3.65.124-5.72-.3-9.5901-.26-1.04.012-2.41.228-3.96.186-1.05.11-2.02.108-3.32-.02-1.4-.14-3.8.196-6.32.096-.58-.024-1.12-.062-1.66-.152-2.34.084-4.94-.052-8.02.18-.96.074-1.82.146-2.65.184-.23.134-.43.266-.68.402l-.11-.392c-.2-.002-.41.022-.6.008l-3.12-.234 2.69-1.26c.18-.084.36-.154.55-.224l-.14-.48c.33.01.75.024 1.18.038.6-.314 1.13-.64 2.1-.872 1.07.07 2.03.128 3.27.142 1.05.014 2.42-.172 3.96-.094 1.06-.086 2.03-.062 3.33.096 1.4.172 3.8-.108 6.32.05.58.036 1.12.088 1.65.19 2.34-.032 4.94.166 8.03.004 1.82-.096 3.33-.292 4.79 0 .15.038.32.08.52.128.66-.106 1.28-.176 1.89-.182 3.64-.042 5.71.43 9.58.48 1.04.012 2.41-.172 3.96-.094.66-.054 1.31-.048 2-.01.54-.012 1.1-.016 1.75.012.53-.06 1.28-.004 2.15.086.44-.024.9-.034 1.4-.024.32.008.62.026.93.042.46.004.93.008 1.4201.04.44.026.85.084 1.27.146.39.022.79.038 1.24.046l.17.002c-.77.544-1.51 1.099-2.23 1.669zm46.5001-3.001l.13.022c2.35-.082 4.95.058 8.03-.172 1.82-.134 3.32-.364 4.79-.104.15.034.32.072.52.116.66-.12 1.28-.204 1.89-.224 3.64-.12 5.7201.306 9.5901.27 1.04-.01 2.41-.224 3.96-.18 1.05-.11 2.02-.108 3.32.022 1.4.142 3.81-.19 6.32-.088.59.024 1.12.062 1.66.154.48-.01.97-.02 1.48-.028.54.018.88-.054 1.84.046 1 .57 2.05 1.166 3.21 1.832l2.93 1.672-3.44.124c-.43.016-.96.034-1.53.054-1.82.094-3.32.288-4.79-.004-.07-.018-.17-.042-.25-.062-1.86-.134-3.58-.334-6.01-.368-1.04-.014-2.42.172-3.96.092-1.06.086-2.03.06-3.32-.1-1.41-.172-3.81.106-6.33-.054-.58-.038-1.11-.088-1.65-.192-2.34.03-4.94-.17-8.03-.01-1.82.092-3.32.288-4.79-.006-.15-.036-.32-.078-.52-.128-.65.106-1.28.176-1.88.182-1.61.016-2.91-.067-4.19-.17.24-.817.52-1.601.87-2.343l.15-.353zm14.58-11.626l.04.011c.8.036 1.5-.186 2.58.142 1.26.01 2.38-.02 3.3101.26.14.046.28.09.39.126l7.87 2.474-8.31-.044c-2.18-.012-3.54-.426-5.94-.464-.69-.01-1.6.178-2.63.104-.7.088-1.34.066-2.2-.09-.07-.012-.14-.022-.21-.029l5.1-2.49zm-95.9902 1.719c.19-.07.39-.128.58-.196-.17-.11-.34-.236-.53-.418-.08.014-.19.024-.26.038 1.24-.902 2.22-1.788 3.32-2.198 1.39-.354 1.56-.086 2.16-.126l1.47.15c.96.116 1.95.242 3.23.26.69.01 1.6-.18 2.63-.106.7-.09 1.34-.068 2.2.088.93.166 2.52-.12 4.19.032.39.034.74.082 1.1.184 1.55-.038 3.28.152 5.32-.018 1.21-.1 2.21-.3 3.18-.012.1.034.21.076.34.126.44-.108.86-.18 1.26-.19 2.41-.05 3.79.416 6.3501.454.69.01 1.6-.18 2.63-.106.7-.09 1.34-.068 2.2.088.93.168 2.53-.12 4.2.032.38.034.74.084 1.09.184.27-.008.58.01.86.016 1.48-.204 2.76-.512 4.77-.268.16.02.36.068.55.11.83-.104 1.6-.188 2.33.008.04.016.11.038.17.058.71.056 1.42.124 2.19.178 1-.014 1.76-.07 2.74-.016.51-.058 1.06-.116 1.68-.086.49-.075.95-.094 1.48-.052-1.73.414-3.47 1.028-5.26 1.769-.16-.004-.31-.009-.47-.013-1.22.18-2.39.364-4.09.206-.16-.014-.35-.058-.54-.092-.84.084-1.61.148-2.34-.06-.05-.016-.11-.038-.17-.056-.08-.006-.17-.014-.25-.022-.55.028-1.11.014-1.79-.058-1.25.006-2.02.134-3.31.012-.2.028-.46.01-.74-.024-.18.006-.34.032-.53.024-.7.108-1.34.102-2.2-.03-.93-.144-2.52.184-4.2.076-.38-.024-.74-.064-1.09-.158-1.55.08-3.28-.066-5.33.158-1.2.13-2.2.356-3.17.094-.1-.034-.21-.072-.35-.118-.43.12-.85.202-1.25.222-2.42.112-3.8-.318-6.36-.29-.69.008-1.6.22-2.63.174-.7.108-1.34.102-2.2-.03-.93-.144-2.53.184-4.2.076-.38-.024-.74-.064-1.09-.156-1.56.078-3.28-.068-5.33.156-1.2101.13-2.2001.356-3.1801.094-.14-.04-.29-.112-.44-.178l-.92.01z" fill="#fff" fill-rule="nonzero"/><path d="M624.5174 273.8978l16.596-7.582-14.23-31.148c1.82-1.758 3.327-3.526 4.833-5.294l23.4391 30.027 16.596-7.582-30.228-38.8071c3.664-9.543 3.751-19.149.135-27.064-5.482-11.999-16.075-17.961-33.6921-9.913l-23.106 10.556 39.657 86.807zm662.443-10.13l16.51 7.769 33.4702-71.1131 14.6 6.873 7.17-15.238-45.7101-21.515-7.18 15.238 14.61 6.873-33.47 71.113zm-86.1102-33.64l17.19 6.138 17-47.5801.84 53.955 16.5201 5.902 32.1101-89.873-17.18-6.138-17.7101 49.562-.13-55.937-16.53-5.902-32.1101 89.873zm-506.2196 13.449l40.4282-14.07-5.535-15.9061-23.1971 8.073-7.611-21.871 17.895-6.227-5.536-15.906-17.894 6.227-7.15-20.545 23.196-8.073-5.535-15.906-40.4282 14.069 31.3671 90.135zm425.7293-34.3851l17.73 4.307 6.07-13.691 18.1401 4.406-1.02 14.917 17.73 4.306 6.1601-96.7151-25.91-6.294-38.9002 88.764zm-340.211 9.475c14.44-3.579 23.653-14.827 19.669-30.902-3.342-13.486-15.175-19.808-26.467-24.528-8.571-3.659-16.086-7.146-17.572-13.14-1.688-6.812 1.28-10.005 5.366-11.018 4.223-1.047 7.42.764 9.111 5.839.609 1.873 1.116 3.917 1.656 6.096l17.028-4.22c-.675-2.725-1.35-5.449-2.094-7.868-4.497-15.2241-15.721-19.6721-30.025-16.1271-14.0311 3.478-23.0061 14.523-18.9881 30.734 3.276 13.213 12.422 18.031 22.352 23.089 12.548 6.289 19.9661 7.631 21.6881 14.579 1.586 6.402-1.144 9.971-5.639 11.085-3.406.844-7.692-.696-9.177-6.69l-1.284-5.177-17.028 4.221 1.959 7.901c3.68 14.8491 16.776 19.2661 29.445 16.1261zm-160.4385.799l-11.256-24.638 6.51-2.974c5.873-2.683 9.304-.238 11.112 3.719 3.324 7.276.565 16.098-6.366 23.893zm429.4593-20.968l18.07 2.482 4.66-33.926c2.48-.51 4.7-1.197 6.92-1.884l3.7201 37.911 18.07 2.482-4.75-48.96c8.21-6.098 13.42-14.165 14.61-22.7861 1.79-13.07-3.96-23.777-23.15-26.412l-25.17-3.456-12.9801 94.549zm-209.7776 6.424l18.037-2.774-11.95-77.6811 15.95-2.453-2.56-16.646-49.9371 7.68 2.56 16.646 15.953-2.453 11.947 77.681zm47.9671-6.955l18.21-1.147 1.73-14.875 18.6301-1.173 3.45 14.548 18.2101-1.147-22.81-94.1881-26.6101 1.676-10.81 96.306zm108.6503-1.496c14.59.543 27.0601-6.296 27.8901-28.456l2.5-67.3201-18.23-.679-2.4 64.516c-.33 8.835-2.4 15.359-9.13 15.109-6.87-.256-8.45-7.056-8.12-15.751l2.4-64.516-18.2301-.678-2.51 67.32c-.82 22.019 11.25 29.912 25.83 30.455zM1151 184.1377l15.48-36.969-3.07 39.984-12.41-3.015zm-241.8107-19.186l3.81-39.8971 8.93 39.094-12.74.803zm165.0605-15l3.69-26.8361 7.09.974c6.39.879 7.98 4.78 7.39 9.09-1.09 7.926-8.14 13.899-18.17 16.772z" fill="#fff" fill-rule="nonzero"/><path d="M1041.3297 404.786s13.75 17.062 2.49 38.818c-10.67 20.634-37.4101 13.99-40.4801 14.672-3.06.682-.54 4.644-10.77 12.57-12.1701 9.422-15.2201 10.144-15.2201 15.478 0 4.548 10.83 12.156 10.83 12.156s-1.1 8.298-2.08 11.32c-1.09 3.376-4.31 12.796-5.24 15.522-1.7-.588-3.42-.888-5.03-.888 0 0-9.4 2.064-11.79 2.064-2.39 0-11.79-2.064-11.79-2.064-1.62 0-3.3401.296-5.0301.878-.94-2.738-4.15-12.14-5.24-15.512-.98-3.022-2.08-11.32-2.08-11.32s10.83-7.608 10.83-12.156c0-5.334-3.05-6.056-15.22-15.478-10.23-7.926-7.71-11.888-10.77-12.57-3.07-.682-29.8102 5.962-40.4802-14.672-11.26-21.756 2.49-38.818 2.49-38.818s-13.44 9.298-12.44 35.262c.86 21.976 27.09 31.516 27.09 31.516l8.71-1.498c-4.36.888-13.87 3.574-15.69 10.356-2.39 8.858 16.01 8.688 19.7601 7.324 3.74-1.362 5.62-.996 6.3.694.68 1.692 5.96 16.854 9.03 22.134 2.89 4.982 10.48 17.388 11.33 18.776-2.27 2.382-3.8 5.61-3.8 9.668 0 9.6021 11.2601 17.4561 27.0001 17.4561 15.41 0 27.0001-7.854 27.0001-17.456 0-4.048-1.54-7.272-3.81-9.652.79-1.296 8.44-13.788 11.34-18.792 3.07-5.28 8.35-20.442 9.03-22.134.68-1.69 2.56-2.056 6.3001-.694 3.75 1.364 22.15 1.534 19.76-7.324-1.82-6.782-11.33-9.4681-15.69-10.3561l8.71 1.498s26.2301-9.54 27.0901-31.516c1-25.964-12.44-35.262-12.44-35.262zm-128.9804 36.183c15.35.31 24.96-5.114 37.2001-5.114 12.24 0 15.65 7.748 15.65 7.748l.01-.02v.014s3.41-7.75 15.6501-7.75c12.24 0 21.85 5.424 37.2001 5.114.22-.004.43-.02.64-.03.04 0 .07.004.11.004 12.54 0 21.68-6.966 21.68-17.072 0-10.104-8.61-15.718-8.61-15.718s1.55 8.848-4.68 14.222c-4.11 3.556-8.6 2.994-8.6 2.994s5.24-16.468-5.24-26.386c-.1-.09-.2-.178-.3-.266 1.52-2.248 2.72-5.008 2.53-8.012-.97-14.9981-26.9-17.4081-27.95-34.6361-.46-7.556 1.76-12.402 1.76-12.402s-8.0401 4.452-7.6501 14.78c.72 19.432 28.32 25.332 28.32 35.66 0 .826-.02 1.582-.05 2.282-12.7-8.444-39.33-14.612-39.33-31.464 0-18.526 14.6-27.134 14.6-27.134s-49.5901 6.362-49.5901 47.906c0 8.434 2.05 14.526 4.83 18.924-2.3.26-9.76.688-18.88-3.164-11.0001-4.65-15.0301-16.894-15.0301-16.894s-5.11 6.804-3.41 20.218c1.7 13.414 10.38 17.598 10.38 17.598s-2.71 2.014-10.73 2.014-14.53-10.306-14.53-10.306 1.98 26.444 24.02 26.89z" fill="#fff" fill-rule="nonzero"/></svg>