<?xml version="1.0" standalone="no"?>
<!DOCTYPE svg PUBLIC "-//W3C//DTD SVG 20010904//EN"
 "http://www.w3.org/TR/2001/REC-SVG-20010904/DTD/svg10.dtd">
<svg version="1.0" xmlns="http://www.w3.org/2000/svg"
 width="700.000000pt" height="700.000000pt" viewBox="0 0 700.000000 700.000000"
 preserveAspectRatio="xMidYMid meet">
<metadata>
Created by potrace 1.11, written by Peter Selinger 2001-2013
</metadata>
<g transform="translate(0.000000,700.000000) scale(0.100000,-0.100000)"
fill="#000000" stroke="none">
<path d="M3057 6564 c-1 -2 -43 -5 -92 -9 -50 -3 -101 -7 -115 -9 -14 -2 -52
-7 -85 -11 -33 -4 -69 -9 -80 -11 -11 -2 -36 -7 -55 -10 -19 -3 -60 -12 -90
-19 -30 -8 -66 -16 -80 -19 -34 -7 -151 -41 -219 -65 -514 -178 -947 -519
-1267 -997 -40 -62 -74 -114 -74 -117 0 -2 -22 -43 -50 -91 -27 -48 -50 -89
-50 -91 0 -2 -18 -41 -39 -87 -163 -348 -267 -805 -296 -1308 -5 -89 -6 -453
0 -515 2 -27 6 -86 9 -130 6 -80 7 -93 25 -235 16 -120 21 -148 52 -290 137
-638 412 -1133 857 -1542 314 -289 801 -524 1232 -593 19 -3 46 -7 60 -10 23
-4 78 -12 140 -20 213 -29 648 -23 853 11 20 3 47 7 60 9 112 14 327 68 479
121 113 39 314 132 411 190 70 42 239 154 247 163 3 3 43 38 90 77 114 96 203
185 324 324 152 175 335 486 437 742 85 215 165 507 194 708 3 25 8 52 10 60
2 8 7 44 10 80 4 36 9 74 11 84 26 138 26 839 -1 1031 -3 17 -9 68 -15 115
-33 253 -98 505 -205 800 -17 48 -148 317 -187 385 -103 180 -253 372 -427
545 -321 320 -621 493 -1106 640 -16 5 -41 11 -55 14 -14 2 -45 9 -70 15 -52
11 -102 21 -145 26 -16 2 -46 6 -65 9 -143 22 -233 28 -438 30 -106 1 -194 1
-195 0z m423 -668 c14 -3 45 -7 69 -11 69 -9 211 -42 271 -63 177 -62 220 -82
350 -160 141 -85 308 -233 428 -377 72 -88 178 -254 241 -379 70 -138 77 -155
111 -251 12 -33 25 -69 30 -80 5 -11 11 -29 13 -40 3 -11 17 -61 30 -110 14
-50 33 -128 42 -175 21 -111 23 -118 30 -165 3 -22 8 -53 10 -70 5 -33 11 -92
22 -230 10 -117 10 -523 0 -645 -23 -305 -88 -627 -172 -858 -78 -210 -225
-474 -357 -635 -58 -71 -192 -205 -253 -253 -27 -21 -52 -42 -55 -45 -5 -6
-59 -42 -129 -87 -172 -109 -475 -208 -705 -230 -148 -14 -430 -7 -556 14
-302 50 -593 180 -810 361 -56 47 -195 188 -235 238 -16 20 -40 49 -51 64 -40
49 -150 225 -192 308 -75 144 -179 429 -206 563 -74 362 -91 525 -90 890 0
245 6 373 25 505 5 39 12 90 15 115 3 25 14 86 24 135 11 50 21 99 23 110 2
11 9 40 16 65 7 25 15 53 16 62 6 28 76 229 97 278 87 199 181 364 286 500
137 177 335 350 520 453 102 57 285 131 377 153 77 18 111 25 143 30 20 3 42
7 49 9 7 2 45 7 85 11 40 3 75 8 77 10 5 5 379 -4 411 -10z"/>
<path d="M3370 2997 c-84 -20 -166 -65 -231 -129 -32 -31 -59 -62 -59 -67 0
-5 -6 -16 -14 -23 -7 -8 -26 -48 -41 -89 -36 -96 -38 -223 -6 -313 70 -196
234 -322 435 -332 320 -16 568 278 496 590 -21 93 -76 186 -153 256 -34 32
-154 96 -197 106 -55 12 -178 13 -230 1z"/>
</g>
</svg>
